<?xml version="1.0" encoding="utf-8"?>
<!-- Generator: Adobe Illustrator 25.2.3, SVG Export Plug-In . SVG Version: 6.00 Build 0)  -->
<svg version="1.1" xmlns="http://www.w3.org/2000/svg" xmlns:xlink="http://www.w3.org/1999/xlink" x="0px" y="0px"
	 viewBox="0 0 80 40" style="enable-background:new 0 0 80 40;" xml:space="preserve">
<style type="text/css">
	.st0{fill:#DEFD9B;}
	.st1{display:none;}
	.st2{display:inline;fill:#2B2727;}
	.st3{fill:#2B2727;}
</style>
<g id="Layer_1">
	<path class="st0" d="M64,40H16C7.2,40,0,32.8,0,24v-8C0,7.2,7.2,0,16,0h48c8.8,0,16,7.2,16,16v8C80,32.8,72.8,40,64,40z"/>
</g>
<g id="Layer_2" class="st1">
</g>
<g id="Layer_3" class="st1">
	<path class="st2" d="M22.2,29.2l6.9-9.8c2.5-3.6,1.7-8.6-2-11.1l0,0l-0.8-0.6c-0.9-0.6-2.2-0.4-2.8,0.5l-2.9,4.1
		c-0.3,0.5-0.2,1.1,0.2,1.4l2.5,1.7c0.5,0.3,0.6,0.9,0.2,1.4L17.9,25c-0.3,0.5-0.9,0.6-1.4,0.2l-2.5-1.7c-0.5-0.3-1.1-0.2-1.4,0.2
		l-2.9,4.1c-0.6,0.9-0.4,2.2,0.5,2.8l0.8,0.6C14.7,33.7,19.7,32.9,22.2,29.2z"/>
</g>
<g id="Layer_4" class="st1">
	<path class="st2" d="M26.3,12.9l-12,0c-4.4,0-8,3.6-8,8l0,0v1c0,1.1,0.9,2,2,2h5c0.6,0,1-0.4,1-1v-3c0-0.6,0.4-1,1-1l10,0
		c0.6,0,1,0.4,1,1v3c0,0.6,0.4,1,1,1h5c1.1,0,2-0.9,2-2v-1C34.3,16.4,30.7,12.9,26.3,12.9z"/>
</g>
<g id="Layer_5">
	<g>
		<path class="st3" d="M14.2,24.6c-0.1,0.2-0.1,0.3-0.2,0.4c0,0.1-0.1,0.2-0.2,0.2c-0.1,0.1-0.1,0.1-0.2,0.1c-0.1,0-0.2,0-0.3,0
			c-0.1,0-0.2,0-0.3,0c-0.1,0-0.2-0.1-0.3-0.1s-0.1-0.1-0.2-0.2c-0.1-0.1-0.1-0.2-0.1-0.3c0-0.1,0-0.1,0-0.2s0.1-0.2,0.1-0.4
			l3.5-9.9c0-0.1,0.1-0.2,0.1-0.2s0.1-0.1,0.1-0.2s0.1-0.1,0.1-0.2s0.1-0.1,0.1-0.1c0.1-0.1,0.2-0.2,0.4-0.2s0.3-0.1,0.5-0.1
			s0.4,0,0.5,0.1s0.3,0.1,0.4,0.2c0,0,0.1,0.1,0.1,0.1s0.1,0.1,0.1,0.2s0.1,0.1,0.1,0.2s0.1,0.1,0.1,0.2l3.6,9.9
			c0.1,0.2,0.1,0.3,0.1,0.4s0,0.1,0,0.2c0,0.1,0,0.2-0.1,0.3s-0.1,0.2-0.2,0.2c-0.1,0.1-0.2,0.1-0.3,0.1c-0.1,0-0.2,0-0.3,0
			c-0.1,0-0.2,0-0.3,0c-0.1,0-0.2-0.1-0.2-0.1C21,25.2,21,25.1,20.9,25s-0.1-0.2-0.2-0.4l-0.9-2.5h-4.9L14.2,24.6z M19.5,20.8
			L18,16.6c-0.1-0.2-0.2-0.5-0.2-0.7c-0.1-0.2-0.1-0.4-0.2-0.6c-0.1-0.2-0.1-0.4-0.2-0.5h0c0,0.2-0.1,0.3-0.2,0.5
			c0,0.2-0.1,0.4-0.2,0.6s-0.1,0.4-0.2,0.7l-1.4,4.2H19.5z"/>
		<path class="st3" d="M24.4,21.2c0-0.8,0.1-1.5,0.3-2.1c0.2-0.6,0.5-1.1,0.9-1.5s0.9-0.7,1.4-1s1.2-0.3,1.8-0.3
			c0.3,0,0.5,0,0.7,0.1s0.4,0.1,0.6,0.1s0.3,0.1,0.4,0.2c0.1,0.1,0.2,0.1,0.2,0.2c0.1,0.1,0.1,0.2,0.2,0.2s0.1,0.2,0.1,0.3
			c0,0.1,0,0.2,0,0.2c0,0.1-0.1,0.1-0.1,0.2s-0.1,0.1-0.2,0.1s-0.1,0-0.2,0c-0.1,0-0.2,0-0.3-0.1c-0.1,0-0.2-0.1-0.3-0.1
			s-0.3-0.1-0.4-0.1s-0.4-0.1-0.6-0.1c-0.4,0-0.7,0.1-1.1,0.2s-0.6,0.4-0.9,0.6s-0.4,0.6-0.6,1.1C26.1,20,26,20.5,26,21
			c0,0.5,0.1,0.9,0.2,1.3c0.1,0.4,0.3,0.7,0.6,1s0.5,0.5,0.9,0.6s0.7,0.2,1.1,0.2c0.3,0,0.5,0,0.6-0.1c0.2,0,0.3-0.1,0.5-0.1
			c0.1,0,0.2-0.1,0.3-0.1c0.1,0,0.2-0.1,0.3-0.1c0.1,0,0.1,0,0.2,0c0.1,0,0.1,0.1,0.2,0.1c0,0,0.1,0.1,0.1,0.2s0,0.1,0,0.2
			c0,0.1,0,0.2-0.1,0.3c0,0.1-0.1,0.2-0.2,0.2s-0.2,0.2-0.3,0.2s-0.3,0.1-0.5,0.2s-0.4,0.1-0.7,0.1c-0.2,0-0.5,0.1-0.8,0.1
			c-0.6,0-1.2-0.1-1.7-0.3c-0.5-0.2-0.9-0.5-1.3-0.9c-0.4-0.4-0.6-0.8-0.8-1.3C24.5,22.5,24.4,21.9,24.4,21.2z"/>
		<path class="st3" d="M33,21.2c0-0.8,0.1-1.5,0.3-2.1c0.2-0.6,0.5-1.1,0.9-1.5s0.9-0.7,1.4-1s1.2-0.3,1.8-0.3c0.3,0,0.5,0,0.7,0.1
			s0.4,0.1,0.6,0.1s0.3,0.1,0.4,0.2c0.1,0.1,0.2,0.1,0.2,0.2c0.1,0.1,0.1,0.2,0.2,0.2s0.1,0.2,0.1,0.3c0,0.1,0,0.2,0,0.2
			c0,0.1-0.1,0.1-0.1,0.2s-0.1,0.1-0.2,0.1s-0.1,0-0.2,0c-0.1,0-0.2,0-0.3-0.1c-0.1,0-0.2-0.1-0.3-0.1s-0.3-0.1-0.4-0.1
			s-0.4-0.1-0.6-0.1c-0.4,0-0.7,0.1-1.1,0.2s-0.6,0.4-0.9,0.6s-0.4,0.6-0.6,1.1c-0.1,0.4-0.2,0.9-0.2,1.5c0,0.5,0.1,0.9,0.2,1.3
			c0.1,0.4,0.3,0.7,0.6,1s0.5,0.5,0.9,0.6s0.7,0.2,1.1,0.2c0.3,0,0.5,0,0.6-0.1c0.2,0,0.3-0.1,0.5-0.1c0.1,0,0.2-0.1,0.3-0.1
			c0.1,0,0.2-0.1,0.3-0.1c0.1,0,0.1,0,0.2,0c0.1,0,0.1,0.1,0.2,0.1c0,0,0.1,0.1,0.1,0.2s0,0.1,0,0.2c0,0.1,0,0.2-0.1,0.3
			c0,0.1-0.1,0.2-0.2,0.2s-0.2,0.2-0.3,0.2s-0.3,0.1-0.5,0.2s-0.4,0.1-0.7,0.1c-0.2,0-0.5,0.1-0.8,0.1c-0.6,0-1.2-0.1-1.7-0.3
			c-0.5-0.2-0.9-0.5-1.3-0.9c-0.4-0.4-0.6-0.8-0.8-1.3C33.1,22.5,33,21.9,33,21.2z"/>
		<path class="st3" d="M43.2,21.1L43.2,21.1c0,0.5,0.1,1,0.2,1.3c0.1,0.4,0.3,0.7,0.6,0.9c0.3,0.3,0.6,0.5,0.9,0.6
			c0.4,0.1,0.7,0.2,1.2,0.2c0.3,0,0.6,0,0.9-0.1s0.4-0.1,0.6-0.2s0.3-0.1,0.4-0.1s0.2-0.1,0.3-0.1c0.1,0,0.2,0,0.2,0
			s0.1,0.1,0.2,0.1c0,0,0.1,0.1,0.1,0.2s0,0.1,0,0.2c0,0.1,0,0.2-0.1,0.3s-0.1,0.2-0.2,0.2c-0.1,0.1-0.2,0.2-0.4,0.2
			s-0.4,0.2-0.6,0.2c-0.2,0.1-0.5,0.1-0.8,0.2c-0.3,0.1-0.6,0.1-1,0.1c-0.6,0-1.2-0.1-1.8-0.3c-0.5-0.2-1-0.5-1.3-0.9
			c-0.4-0.4-0.7-0.8-0.9-1.4c-0.2-0.5-0.3-1.1-0.3-1.8c0-0.8,0.1-1.5,0.3-2.1s0.5-1.1,0.9-1.5s0.8-0.7,1.3-0.9s1.1-0.3,1.7-0.3
			c0.5,0,1,0.1,1.4,0.3s0.8,0.4,1.1,0.7s0.5,0.7,0.7,1.2s0.3,1,0.3,1.6c0,0.3-0.1,0.6-0.2,0.7s-0.4,0.3-0.7,0.3H43.2z M47.7,19.9
			c-0.1-0.8-0.3-1.4-0.7-1.8s-0.9-0.6-1.5-0.6c-0.3,0-0.5,0-0.8,0.1s-0.5,0.2-0.7,0.4c-0.2,0.2-0.4,0.4-0.5,0.7s-0.3,0.6-0.3,1.1
			H47.7z"/>
		<path class="st3" d="M52.2,17.1c0-0.2,0.1-0.4,0.2-0.5s0.3-0.2,0.5-0.2c0.1,0,0.2,0,0.3,0s0.2,0.1,0.2,0.1s0.1,0.1,0.1,0.2
			s0.1,0.2,0.1,0.3l0.1,0.6h0c0.2-0.3,0.4-0.5,0.7-0.7c0.1-0.1,0.2-0.2,0.4-0.3s0.3-0.2,0.5-0.2s0.4-0.1,0.6-0.2
			c0.2,0,0.4-0.1,0.7-0.1c0.5,0,1,0.1,1.5,0.3s0.8,0.5,1.1,0.8c0.3,0.4,0.6,0.8,0.7,1.4s0.3,1.2,0.3,1.9c0,0.8-0.1,1.4-0.3,2
			s-0.5,1.1-0.9,1.5c-0.4,0.4-0.9,0.7-1.5,0.9c-0.6,0.2-1.2,0.3-2,0.3c-0.2,0-0.4,0-0.6,0s-0.4,0-0.5-0.1c-0.2,0-0.3-0.1-0.4-0.1
			l0,0c0,0.2,0,0.4,0,0.5s0,0.4,0,0.6v2.4c0,0.2-0.1,0.4-0.2,0.5c-0.1,0.1-0.3,0.2-0.6,0.2s-0.5-0.1-0.6-0.2
			c-0.1-0.1-0.2-0.3-0.2-0.5V17.1z M53.8,23.9c0.1,0.1,0.3,0.1,0.4,0.2c0.1,0,0.3,0.1,0.5,0.1s0.5,0.1,0.8,0.1
			c0.4,0,0.8-0.1,1.2-0.2s0.7-0.4,0.9-0.6s0.4-0.6,0.6-1.1c0.1-0.4,0.2-0.9,0.2-1.5c0-0.6-0.1-1.1-0.2-1.5s-0.3-0.7-0.5-1
			s-0.4-0.4-0.7-0.6s-0.6-0.2-1-0.2c-0.2,0-0.4,0-0.5,0.1c-0.2,0-0.3,0.1-0.5,0.2C55,18,54.9,18,54.7,18.1s-0.2,0.2-0.3,0.3
			c-0.2,0.2-0.4,0.5-0.6,0.8V23.9z"/>
		<path class="st3" d="M62.4,17.8c-0.2,0-0.3-0.1-0.4-0.2s-0.2-0.3-0.2-0.5s0.1-0.4,0.2-0.5s0.2-0.2,0.4-0.2h1l0.2-1.7
			c0-0.3,0.1-0.4,0.2-0.6c0.1-0.1,0.3-0.2,0.5-0.2c0.2,0,0.4,0.1,0.5,0.2s0.2,0.3,0.2,0.5v1.7h1.8c0.2,0,0.3,0.1,0.4,0.2
			s0.2,0.3,0.2,0.5s-0.1,0.4-0.2,0.5s-0.2,0.2-0.4,0.2h-1.8v5.1c0,0.5,0.1,0.8,0.3,1s0.4,0.3,0.8,0.3c0.1,0,0.3,0,0.3,0
			c0.1,0,0.2,0,0.3-0.1c0.1,0,0.1,0,0.2-0.1s0.1,0,0.2,0c0.1,0,0.1,0,0.2,0s0.1,0.1,0.1,0.1c0,0,0.1,0.1,0.1,0.2c0,0.1,0,0.1,0,0.2
			c0,0.1,0,0.2-0.1,0.3s-0.1,0.1-0.2,0.2c0,0-0.1,0.1-0.2,0.1s-0.2,0.1-0.3,0.2c-0.1,0-0.3,0.1-0.5,0.1c-0.2,0-0.4,0-0.6,0
			c-0.8,0-1.3-0.2-1.7-0.6s-0.6-0.9-0.6-1.7v-5.5H62.4z"/>
	</g>
</g>
</svg>
