<?xml version="1.0" encoding="utf-8"?>
<!-- Generator: Adobe Illustrator 25.2.3, SVG Export Plug-In . SVG Version: 6.00 Build 0)  -->
<svg version="1.1" xmlns="http://www.w3.org/2000/svg" xmlns:xlink="http://www.w3.org/1999/xlink" x="0px" y="0px"
	 viewBox="0 0 80 40" style="enable-background:new 0 0 80 40;" xml:space="preserve">
<style type="text/css">
	.st0{fill:#DEFD9B;}
	.st1{display:none;}
	.st2{display:inline;fill:#2B2727;}
	.st3{fill:#2B2727;}
</style>
<g id="Layer_1">
	<g id="Layer_1_1_">
		<path class="st0" d="M64,40H16C7.2,40,0,32.8,0,24v-8C0,7.2,7.2,0,16,0h48c8.8,0,16,7.2,16,16v8C80,32.8,72.8,40,64,40z"/>
	</g>
	<g id="Layer_2_1_" class="st1">
	</g>
	<g id="Layer_3" class="st1">
		<path class="st2" d="M22.2,29.2l6.9-9.8c2.5-3.6,1.7-8.6-2-11.1l0,0l-0.8-0.6c-0.9-0.6-2.2-0.4-2.8,0.5l-2.9,4.1
			c-0.3,0.5-0.2,1.1,0.2,1.4l2.5,1.7c0.5,0.3,0.6,0.9,0.2,1.4L17.9,25c-0.3,0.5-0.9,0.6-1.4,0.2L14,23.5c-0.5-0.3-1.1-0.2-1.4,0.2
			l-2.9,4.1c-0.6,0.9-0.4,2.2,0.5,2.8l0.8,0.6C14.7,33.7,19.7,32.9,22.2,29.2z"/>
	</g>
	<g id="Layer_4" class="st1">
		<path class="st2" d="M26.3,12.9h-12c-4.4,0-8,3.6-8,8l0,0v1c0,1.1,0.9,2,2,2h5c0.6,0,1-0.4,1-1v-3c0-0.6,0.4-1,1-1h10
			c0.6,0,1,0.4,1,1v3c0,0.6,0.4,1,1,1h5c1.1,0,2-0.9,2-2v-1C34.3,16.4,30.7,12.9,26.3,12.9z"/>
	</g>
	<g>
		<path class="st3" d="M12,25.2c-0.1,0.2-0.1,0.4-0.2,0.5s-0.1,0.2-0.2,0.3c-0.1,0.1-0.2,0.1-0.3,0.2s-0.3,0.1-0.4,0.1
			c-0.1,0-0.3,0-0.4-0.1s-0.3-0.1-0.4-0.2s-0.2-0.2-0.3-0.3s-0.1-0.3-0.1-0.4c0-0.1,0-0.2,0-0.3c0-0.1,0.1-0.2,0.1-0.4l3.7-10.5
			c0-0.1,0.1-0.2,0.1-0.3s0.1-0.2,0.1-0.3s0.1-0.2,0.1-0.2s0.1-0.1,0.2-0.2c0.1-0.1,0.3-0.2,0.5-0.3s0.4-0.1,0.7-0.1
			c0.3,0,0.5,0,0.7,0.1c0.2,0.1,0.4,0.2,0.5,0.3c0.1,0.1,0.1,0.1,0.2,0.2s0.1,0.1,0.1,0.2c0,0.1,0.1,0.2,0.1,0.3
			c0,0.1,0.1,0.2,0.1,0.3l3.7,10.5c0.1,0.2,0.1,0.4,0.1,0.4s0,0.2,0,0.2c0,0.2,0,0.3-0.1,0.4S20.8,26,20.7,26s-0.2,0.1-0.4,0.2
			s-0.3,0.1-0.4,0.1c-0.1,0-0.3,0-0.4-0.1s-0.2-0.1-0.3-0.2c-0.1-0.1-0.1-0.2-0.2-0.3s-0.1-0.3-0.2-0.5l-0.9-2.4h-5.2L12,25.2z
			 M17.4,21.1l-1.5-4.3c-0.1-0.3-0.2-0.5-0.2-0.7c-0.1-0.2-0.1-0.4-0.2-0.6c-0.1-0.2-0.1-0.4-0.2-0.6h0c-0.1,0.2-0.1,0.4-0.2,0.6
			c-0.1,0.2-0.1,0.4-0.2,0.6c-0.1,0.2-0.1,0.5-0.2,0.7l-1.4,4.3H17.4z"/>
		<path class="st3" d="M22.8,21.6c0-0.9,0.1-1.6,0.4-2.3s0.6-1.3,1-1.7s1-0.8,1.6-1.1s1.3-0.4,2.1-0.4c0.3,0,0.6,0,0.8,0.1
			s0.4,0.1,0.6,0.2s0.3,0.1,0.5,0.2s0.2,0.1,0.3,0.2c0.1,0.1,0.2,0.2,0.2,0.3s0.1,0.2,0.1,0.4c0,0.1,0,0.2-0.1,0.3S30.2,18,30.1,18
			s-0.1,0.1-0.2,0.2s-0.2,0.1-0.3,0.1c-0.1,0-0.2,0-0.3-0.1s-0.2-0.1-0.4-0.1s-0.3-0.1-0.5-0.1s-0.4-0.1-0.7-0.1
			c-0.4,0-0.7,0.1-1.1,0.2s-0.6,0.4-0.9,0.7s-0.4,0.7-0.6,1.1S25,20.8,25,21.4c0,0.5,0.1,1,0.2,1.4s0.3,0.7,0.6,1s0.6,0.5,0.9,0.6
			s0.7,0.2,1.2,0.2c0.3,0,0.5,0,0.7-0.1s0.3-0.1,0.5-0.1s0.3-0.1,0.4-0.1s0.2-0.1,0.3-0.1c0.1,0,0.2,0,0.3,0.1
			c0.1,0,0.1,0.1,0.2,0.2c0.1,0.1,0.1,0.1,0.1,0.2s0,0.2,0,0.3c0,0.1,0,0.3-0.1,0.4c-0.1,0.1-0.1,0.2-0.2,0.3
			c-0.1,0.1-0.2,0.2-0.4,0.3s-0.3,0.2-0.6,0.2s-0.5,0.1-0.8,0.2s-0.6,0.1-0.9,0.1c-0.7,0-1.3-0.1-1.9-0.3s-1.1-0.5-1.5-1
			s-0.7-0.9-0.9-1.5S22.8,22.3,22.8,21.6z"/>
		<path class="st3" d="M32.2,21.6c0-0.9,0.1-1.6,0.4-2.3s0.6-1.3,1-1.7s1-0.8,1.6-1.1s1.3-0.4,2.1-0.4c0.3,0,0.6,0,0.8,0.1
			s0.4,0.1,0.6,0.2s0.3,0.1,0.5,0.2s0.2,0.1,0.3,0.2c0.1,0.1,0.2,0.2,0.2,0.3s0.1,0.2,0.1,0.4c0,0.1,0,0.2-0.1,0.3S39.6,18,39.5,18
			s-0.1,0.1-0.2,0.2s-0.2,0.1-0.3,0.1c-0.1,0-0.2,0-0.3-0.1s-0.2-0.1-0.4-0.1S38,18,37.8,17.9s-0.4-0.1-0.7-0.1
			c-0.4,0-0.7,0.1-1.1,0.2s-0.6,0.4-0.9,0.7s-0.4,0.7-0.6,1.1s-0.2,0.9-0.2,1.5c0,0.5,0.1,1,0.2,1.4s0.3,0.7,0.6,1s0.6,0.5,0.9,0.6
			s0.7,0.2,1.2,0.2c0.3,0,0.5,0,0.7-0.1s0.3-0.1,0.5-0.1s0.3-0.1,0.4-0.1s0.2-0.1,0.3-0.1c0.1,0,0.2,0,0.3,0.1
			c0.1,0,0.1,0.1,0.2,0.2c0.1,0.1,0.1,0.1,0.1,0.2s0,0.2,0,0.3c0,0.1,0,0.3-0.1,0.4c-0.1,0.1-0.1,0.2-0.2,0.3
			c-0.1,0.1-0.2,0.2-0.4,0.3s-0.3,0.2-0.6,0.2s-0.5,0.1-0.8,0.2s-0.6,0.1-0.9,0.1c-0.7,0-1.3-0.1-1.9-0.3s-1.1-0.5-1.5-1
			s-0.7-0.9-0.9-1.5S32.2,22.3,32.2,21.6z"/>
		<path class="st3" d="M43.7,21.6L43.7,21.6c0,0.5,0.1,0.9,0.3,1.3s0.4,0.7,0.6,0.9s0.6,0.5,0.9,0.6s0.8,0.2,1.2,0.2
			c0.4,0,0.7,0,0.9-0.1s0.5-0.1,0.7-0.2s0.3-0.1,0.5-0.2s0.3-0.1,0.4-0.1c0.1,0,0.2,0,0.3,0.1s0.2,0.1,0.2,0.2s0.1,0.1,0.1,0.2
			s0,0.2,0,0.3c0,0.1,0,0.2-0.1,0.3s-0.1,0.2-0.2,0.3c-0.1,0.1-0.2,0.2-0.4,0.3s-0.4,0.2-0.7,0.3s-0.6,0.2-0.9,0.2s-0.7,0.1-1.2,0.1
			c-0.7,0-1.4-0.1-2-0.3s-1.1-0.5-1.5-1s-0.7-0.9-1-1.5s-0.3-1.3-0.3-2c0-0.9,0.1-1.6,0.4-2.3s0.6-1.2,1-1.7s0.9-0.8,1.5-1.1
			s1.2-0.4,1.9-0.4c0.6,0,1.1,0.1,1.6,0.3s0.9,0.5,1.3,0.8s0.6,0.8,0.8,1.3s0.3,1.1,0.3,1.8c0,0.4-0.1,0.7-0.3,0.9s-0.5,0.3-0.9,0.3
			H43.7z M48.2,20.1c-0.1-0.8-0.3-1.4-0.7-1.8s-0.9-0.6-1.5-0.6c-0.3,0-0.5,0-0.8,0.1s-0.5,0.2-0.7,0.4s-0.4,0.4-0.5,0.8
			s-0.3,0.7-0.3,1.1H48.2z"/>
		<path class="st3" d="M53.1,17.1c0-0.3,0.1-0.5,0.2-0.7s0.4-0.2,0.7-0.2c0.1,0,0.3,0,0.4,0.1s0.2,0.1,0.3,0.2s0.1,0.2,0.2,0.3
			s0.1,0.2,0.1,0.4l0.1,0.6h0c0.2-0.3,0.4-0.5,0.7-0.8c0.1-0.1,0.3-0.2,0.4-0.3s0.3-0.2,0.5-0.2s0.4-0.1,0.6-0.2s0.5-0.1,0.7-0.1
			c0.6,0,1.2,0.1,1.6,0.3s0.9,0.5,1.3,0.9s0.6,0.9,0.8,1.5s0.3,1.3,0.3,2.1c0,0.9-0.1,1.6-0.4,2.3s-0.6,1.2-1.1,1.7s-1,0.8-1.7,1.1
			s-1.4,0.4-2.3,0.4c-0.2,0-0.4,0-0.6,0s-0.3,0-0.5-0.1c-0.2,0-0.3-0.1-0.4-0.1l0,0c0,0.2,0,0.4,0,0.6s0,0.4,0,0.6v2.5
			c0,0.3-0.1,0.5-0.3,0.7s-0.5,0.2-0.8,0.2s-0.6-0.1-0.8-0.2s-0.3-0.4-0.3-0.7V17.1z M55.3,24.3c0.1,0.1,0.3,0.1,0.4,0.2
			c0.1,0,0.3,0.1,0.5,0.1s0.5,0.1,0.8,0.1c0.4,0,0.8-0.1,1.2-0.2s0.7-0.4,0.9-0.7c0.3-0.3,0.5-0.7,0.6-1.1s0.2-1,0.2-1.5
			c0-0.6-0.1-1.1-0.2-1.5s-0.3-0.8-0.5-1s-0.4-0.5-0.7-0.6c-0.3-0.1-0.6-0.2-1-0.2c-0.2,0-0.4,0-0.6,0.1c-0.2,0-0.3,0.1-0.5,0.2
			c-0.1,0.1-0.3,0.2-0.4,0.2s-0.2,0.2-0.3,0.3c-0.2,0.2-0.4,0.5-0.6,0.8V24.3z"/>
		<path class="st3" d="M64.4,18c-0.2,0-0.4-0.1-0.5-0.2s-0.2-0.4-0.2-0.6c0-0.3,0.1-0.5,0.2-0.6s0.3-0.2,0.5-0.2h1l0.3-1.8
			c0.1-0.3,0.2-0.6,0.3-0.7s0.4-0.2,0.7-0.2s0.5,0.1,0.6,0.2s0.2,0.4,0.2,0.7v1.8h1.9c0.2,0,0.4,0.1,0.5,0.2s0.2,0.3,0.2,0.6
			c0,0.3-0.1,0.5-0.2,0.6S69.6,18,69.4,18h-1.9v5.2c0,0.5,0.1,0.9,0.3,1.1s0.4,0.3,0.8,0.3c0.1,0,0.3,0,0.4,0s0.2,0,0.3-0.1
			s0.1,0,0.2-0.1s0.1,0,0.2,0c0.1,0,0.2,0,0.3,0s0.1,0.1,0.2,0.1s0.1,0.1,0.1,0.2s0,0.2,0,0.3c0,0.2,0,0.3-0.1,0.4s-0.1,0.2-0.2,0.3
			c-0.1,0.1-0.1,0.1-0.2,0.2s-0.2,0.1-0.4,0.2s-0.3,0.1-0.5,0.1s-0.4,0.1-0.7,0.1c-0.9,0-1.6-0.2-2-0.7s-0.7-1.1-0.7-2V18H64.4z"/>
	</g>
</g>
<g id="Layer_2">
</g>
</svg>
