<?xml version="1.0" encoding="utf-8"?>
<!-- Generator: Adobe Illustrator 25.2.3, SVG Export Plug-In . SVG Version: 6.00 Build 0)  -->
<svg version="1.1" id="Layer_1" xmlns="http://www.w3.org/2000/svg" xmlns:xlink="http://www.w3.org/1999/xlink" x="0px" y="0px"
	 viewBox="0 0 48 48" style="enable-background:new 0 0 48 48;" xml:space="preserve">
<style type="text/css">
	.st0{fill:#DEFD9B;}
	.st1{fill:#2B2727;}
</style>
<g>
	<g id="Layer_1_1_">
		<path id="Rectangle_49" class="st0" d="M19.2,0h9.6C39.4,0,48,8.6,48,19.2v9.6C48,39.4,39.4,48,28.8,48h-9.6C8.6,48,0,39.4,0,28.8
			v-9.6C0,8.6,8.6,0,19.2,0z"/>
	</g>
	<g id="Layer_3">
		<path id="Path_28" class="st1" d="M39.6,19.2c0-5.3-4.3-9.6-9.6-9.6H18c-5.3,0-9.6,4.3-9.6,9.6l0,0v0.1C8.3,20.3,9,21,10,21.1
			s1.7-0.6,1.8-1.6c0-0.1,0-0.2,0-0.2v-0.1l0,0c0-3.5,2.9-6.2,6.2-6.2h12c3.5,0,6.2,2.9,6.2,6.2l0,0v0.1c-0.1,1,0.6,1.7,1.6,1.8
			s1.7-0.6,1.8-1.6c0-0.1,0-0.2,0-0.2V19.2z"/>
		<path id="Path_29" class="st1" d="M25.2,18.2c-0.1-0.1-0.4-0.2-0.6-0.4l0,0c-0.4-0.1-0.8-0.1-1.2,0l0,0c-0.2,0.1-0.4,0.2-0.6,0.4
			l-7.7,7.7c-0.6,0.7-0.5,1.8,0.2,2.3c0.6,0.5,1.6,0.5,2.2,0l4.8-4.8v16.2c0,1,0.7,1.7,1.7,1.7s1.7-0.7,1.7-1.7V23.4l4.8,4.8
			c0.6,0.7,1.7,0.8,2.3,0.2c0.7-0.6,0.8-1.7,0.2-2.3c0-0.1-0.1-0.1-0.2-0.2L25.2,18.2z"/>
	</g>
</g>
</svg>
