<?xml version="1.0" encoding="utf-8"?>
<!-- Generator: Adobe Illustrator 25.2.3, SVG Export Plug-In . SVG Version: 6.00 Build 0)  -->
<svg version="1.1" id="Layer_1" xmlns="http://www.w3.org/2000/svg" xmlns:xlink="http://www.w3.org/1999/xlink" x="0px" y="0px"
	 viewBox="0 0 72 44" style="enable-background:new 0 0 72 44;" xml:space="preserve">
<style type="text/css">
	.st0{fill:#1E1A1A;}
	.st1{enable-background:new    ;}
	.st2{fill:#D5D4D4;}
</style>
<rect class="st0" width="72" height="44"/>
<g class="st1">
	<path class="st2" d="M0.1,23.4c0-0.7,0.1-1.5,0.3-2.1s0.5-1.2,1-1.6s0.8-0.7,1.4-0.9s1.2-0.3,1.8-0.3c0.2,0,0.5,0,0.7,0
		s0.4,0.1,0.5,0.1c0.1,0.1,0.3,0.1,0.4,0.2c0.1,0.1,0.2,0.1,0.2,0.2c0,0.2,0.1,0.3,0.1,0.3c0,0.1,0,0.2,0,0.3s0,0.1,0,0.2
		c0,0.1-0.1,0.1-0.1,0.2c0,0-0.1,0.1-0.2,0.1s-0.1,0-0.2,0c-0.1,0-0.2,0-0.3-0.1c-0.1,0-0.2-0.1-0.3-0.1c-0.1,0-0.3-0.1-0.4-0.1
		c-0.1,0-0.4-0.1-0.6-0.1c-0.4,0-0.7,0.1-1.1,0.2c-0.3,0.1-0.6,0.3-0.8,0.6c-0.2,0.3-0.4,0.6-0.5,1.1c-0.1,0.4-0.2,0.9-0.2,1.5
		s0.1,0.9,0.2,1.4c0.1,0.4,0.3,0.7,0.5,0.9c0.2,0.3,0.5,0.4,0.8,0.6c0.3,0.2,0.7,0.2,1.2,0.2c0.2,0,0.4,0,0.6,0
		c0.2,0,0.3-0.1,0.4-0.1c0.1,0,0.2-0.1,0.3-0.1c0.1,0,0.2-0.1,0.3-0.1c0.1,0,0.1,0,0.2,0S6.4,26,6.5,26c0,0,0.1,0.1,0.1,0.2
		c0,0.1,0,0.1,0,0.2s0,0.2-0.1,0.3c0,0.1-0.1,0.2-0.2,0.2S6.1,27.1,6,27.2c-0.1,0.1-0.3,0.1-0.5,0.2c-0.2,0.1-0.4,0.1-0.6,0.1
		c-0.2,0-0.5,0.1-0.8,0.1c-0.6,0-1.2-0.1-1.7-0.3c-0.5-0.2-1-0.5-1.3-0.8s-0.6-0.8-0.8-1.4C0.2,24.6,0.1,24,0.1,23.4z"/>
	<path class="st2" d="M9.8,23.3c0-0.7,0.1-1.4,0.3-2c0.2-0.6,0.5-1.1,0.8-1.5c0.4-0.4,0.8-0.7,1.4-0.9c0.5-0.2,1.2-0.3,1.8-0.3
		c0.6,0,1.2,0.1,1.7,0.3c0.5,0.2,1,0.5,1.3,0.8c0.4,0.4,0.6,0.8,0.8,1.4c0.2,0.5,0.3,1.2,0.3,1.8c0,0.7-0.1,1.4-0.3,2
		c-0.2,0.6-0.5,1.1-0.8,1.5c-0.4,0.4-0.8,0.7-1.4,0.9c-0.5,0.2-1.2,0.3-1.8,0.3c-0.6,0-1.2-0.1-1.7-0.3c-0.5-0.2-1-0.5-1.3-0.9
		c-0.3-0.4-0.6-0.7-0.8-1.3C9.9,24.5,9.8,23.9,9.8,23.3z M11.5,23.1c0,0.5,0.1,0.9,0.2,1.4c0.1,0.4,0.3,0.7,0.5,1.1s0.5,0.5,0.8,0.6
		c0.3,0.1,0.6,0.2,1.1,0.2c0.3,0,0.7-0.1,1.1-0.2c0.3-0.1,0.6-0.3,0.8-0.6c0.2-0.3,0.4-0.6,0.5-1.1c0.1-0.4,0.2-0.8,0.2-1.4
		s-0.1-0.9-0.2-1.4c-0.1-0.4-0.3-0.7-0.5-1.1c-0.2-0.3-0.5-0.5-0.8-0.6s-0.6-0.2-1.1-0.2s-0.7,0.1-1.1,0.2s-0.6,0.3-0.8,0.6
		c-0.2,0.3-0.4,0.6-0.5,1.1C11.5,22.1,11.5,22.5,11.5,23.1z"/>
	<path class="st2" d="M22.5,19.3c0-0.2,0.1-0.4,0.2-0.5s0.3-0.2,0.5-0.2c0.1,0,0.2,0,0.3,0c0.1,0,0.1,0.1,0.2,0.1s0.1,0.1,0.1,0.2
		c0,0.1,0.1,0.2,0.1,0.3l0.1,0.6l0,0c0.2-0.2,0.4-0.5,0.6-0.7c0.1-0.1,0.2-0.2,0.4-0.2c0.1-0.1,0.3-0.1,0.5-0.2s0.3-0.1,0.5-0.2
		c0.2,0,0.4-0.1,0.6-0.1c0.5,0,1,0.1,1.4,0.2s0.7,0.4,1.1,0.7c0.3,0.3,0.5,0.6,0.6,1.2c0.1,0.5,0.2,0.9,0.2,1.6v4.7
		c0,0.2-0.1,0.4-0.2,0.5c-0.1,0.1-0.3,0.2-0.6,0.2s-0.4-0.1-0.6-0.2c-0.2-0.1-0.2-0.3-0.2-0.5v-4.5c0-0.4,0-0.8-0.1-1.2
		c-0.1-0.3-0.2-0.5-0.4-0.7c-0.2-0.2-0.4-0.3-0.6-0.4c-0.2-0.1-0.5-0.1-0.8-0.1c-0.2,0-0.3,0-0.5,0.1c-0.2,0-0.3,0.1-0.4,0.2
		c-0.1,0.1-0.3,0.1-0.4,0.2s-0.2,0.2-0.3,0.3c-0.2,0.2-0.4,0.4-0.5,0.7v5.5c0,0.2-0.1,0.4-0.2,0.5s-0.3,0.2-0.6,0.2
		c-0.3,0-0.4-0.1-0.6-0.2c-0.1-0.1-0.2-0.3-0.2-0.5V19.3z"/>
	<path class="st2" d="M34.7,19.3c0-0.2,0.1-0.4,0.2-0.5c0.1-0.1,0.3-0.2,0.5-0.2c0.1,0,0.2,0,0.3,0s0.1,0.1,0.2,0.1s0.1,0.1,0.1,0.2
		c0,0.1,0.1,0.2,0.1,0.3l0.1,0.6l0,0c0.2-0.2,0.4-0.5,0.6-0.7c0.1-0.1,0.2-0.2,0.4-0.2c0.1-0.1,0.3-0.1,0.5-0.2
		c0.2-0.1,0.3-0.1,0.5-0.2c0.2,0,0.4-0.1,0.6-0.1c0.5,0,1,0.1,1.4,0.2c0.4,0.1,0.7,0.4,1.1,0.7c0.3,0.3,0.5,0.6,0.6,1.2
		c0.1,0.4,0.2,0.9,0.2,1.6v4.7c0,0.2-0.1,0.4-0.2,0.5c-0.1,0.1-0.3,0.2-0.6,0.2s-0.4-0.1-0.6-0.2c-0.1-0.1-0.2-0.3-0.2-0.5v-4.5
		c0-0.4,0-0.8-0.1-1.2c-0.1-0.3-0.2-0.5-0.4-0.7s-0.4-0.3-0.6-0.4c-0.2-0.1-0.5-0.1-0.8-0.1c-0.2,0-0.3,0-0.5,0.1
		c-0.2,0-0.3,0.1-0.4,0.2c-0.1,0.1-0.3,0.1-0.4,0.2c-0.1,0.1-0.2,0.2-0.3,0.3c-0.2,0.2-0.4,0.4-0.5,0.7v5.5c0,0.2-0.1,0.4-0.2,0.5
		s-0.3,0.2-0.6,0.2s-0.4-0.1-0.6-0.2c-0.1-0.1-0.2-0.3-0.2-0.5C34.7,26.8,34.7,19.3,34.7,19.3z"/>
	<path class="st2" d="M47.8,23.3L47.8,23.3c0,0.5,0.1,0.9,0.2,1.4c0.1,0.4,0.3,0.7,0.5,0.9c0.2,0.2,0.5,0.4,0.8,0.6
		c0.3,0.1,0.7,0.2,1.2,0.2c0.3,0,0.6,0,0.8-0.1c0.2,0,0.4-0.1,0.6-0.1s0.3-0.1,0.4-0.1c0.1,0,0.2-0.1,0.3-0.1s0.1,0,0.2,0
		c0.1,0,0.1,0.1,0.2,0.1c0,0,0.1,0.1,0.1,0.2c0,0.1,0,0.1,0,0.2c0,0.1,0,0.2,0,0.3c0,0.1-0.1,0.1-0.2,0.2c-0.1,0.1-0.2,0.1-0.3,0.2
		c-0.1,0.1-0.3,0.2-0.5,0.2c-0.2,0.1-0.5,0.1-0.8,0.2c-0.3,0-0.6,0.1-1.1,0.1c-0.6,0-1.2-0.1-1.7-0.3s-1-0.5-1.3-0.8
		c-0.3-0.4-0.6-0.8-0.8-1.4s-0.3-1.2-0.3-1.8c0-0.7,0.1-1.5,0.3-2.1c0.2-0.6,0.5-1.2,0.8-1.5c0.3-0.4,0.8-0.7,1.3-0.9
		c0.5-0.2,1.1-0.3,1.6-0.3s1,0.1,1.4,0.2c0.4,0.2,0.7,0.4,1.1,0.7c0.3,0.3,0.5,0.7,0.7,1.2c0.2,0.4,0.2,0.9,0.2,1.6
		c0,0.3-0.1,0.5-0.2,0.7c-0.1,0.2-0.4,0.2-0.6,0.2C52.8,23.3,47.8,23.3,47.8,23.3z M52.3,22.1c-0.1-0.8-0.3-1.4-0.6-1.8
		c-0.3-0.4-0.8-0.5-1.5-0.5c-0.2,0-0.5,0-0.7,0.1c-0.2,0.1-0.4,0.2-0.6,0.4s-0.4,0.4-0.5,0.7c-0.1,0.3-0.2,0.6-0.3,1.1H52.3z"/>
	<path class="st2" d="M57.2,23.4c0-0.7,0.1-1.5,0.3-2.1s0.5-1.2,1-1.6s0.8-0.7,1.4-0.9c0.5-0.2,1.2-0.3,1.8-0.3c0.2,0,0.5,0,0.7,0
		s0.4,0.1,0.5,0.1s0.3,0.1,0.4,0.2c0.1,0.1,0.2,0.1,0.2,0.2c0.1,0.1,0.1,0.1,0.2,0.2s0,0.2,0,0.3c0,0.1,0,0.1,0,0.2
		s-0.1,0.1-0.1,0.2c0,0-0.1,0.1-0.2,0.1s-0.1,0-0.2,0c-0.1,0-0.2,0-0.3-0.1c-0.1,0-0.2-0.1-0.3-0.1s-0.3-0.1-0.4-0.1
		c-0.2,0-0.4-0.1-0.6-0.1c-0.4,0-0.7,0.1-1.1,0.2c-0.3,0.1-0.6,0.3-0.8,0.6c-0.2,0.3-0.4,0.6-0.5,1.1c-0.1,0.4-0.2,0.9-0.2,1.5
		c0,0.5,0.1,0.9,0.2,1.4c0.1,0.4,0.3,0.7,0.5,0.9c0.2,0.3,0.5,0.4,0.8,0.6c0.3,0.1,0.7,0.2,1.2,0.2c0.2,0,0.4,0,0.6,0
		c0.2,0,0.3-0.1,0.4-0.1c0.1,0,0.2-0.1,0.3-0.1s0.2-0.1,0.3-0.1s0.1,0,0.2,0c0.1,0,0.1,0.1,0.2,0.1c0,0,0.1,0.1,0.1,0.2
		c0,0.1,0,0.1,0,0.2c0,0.1,0,0.2-0.1,0.3c0,0.1-0.1,0.2-0.2,0.2c-0.1,0.1-0.2,0.1-0.3,0.2s-0.3,0.1-0.5,0.2
		c-0.2,0.1-0.4,0.1-0.6,0.1c-0.2,0-0.5,0.1-0.8,0.1c-0.6,0-1.2-0.1-1.7-0.3c-0.5-0.2-1-0.5-1.3-0.8s-0.6-0.8-0.8-1.4
		C57.3,24.6,57.2,24,57.2,23.4z"/>
	<path class="st2" d="M67.1,19.9c-0.2,0-0.3-0.1-0.4-0.2c-0.1-0.1-0.1-0.2-0.1-0.4c0-0.2,0-0.3,0.1-0.4s0.2-0.2,0.4-0.2h1l0.2-1.7
		c0-0.2,0.1-0.4,0.2-0.5c0.1-0.1,0.3-0.2,0.5-0.2s0.3,0.1,0.4,0.2s0.2,0.3,0.2,0.5v1.8h1.8c0.2,0,0.3,0.1,0.4,0.2s0.1,0.3,0.1,0.4
		c0,0.2,0,0.3-0.1,0.4c-0.1,0.1-0.2,0.2-0.4,0.2h-1.8v5.1c0,0.5,0.1,0.8,0.2,1.1c0.2,0.2,0.4,0.3,0.7,0.3c0.1,0,0.2,0,0.3,0
		c0.1,0,0.2,0,0.2-0.1c0.1,0,0.1,0,0.2-0.1c0.1,0,0.1,0,0.2,0s0.1,0,0.2,0s0.1,0.1,0.1,0.1s0.1,0.1,0.1,0.2c0,0.1,0,0.1,0,0.2
		s0,0.2-0.1,0.3c0,0.1-0.1,0.1-0.1,0.2c0,0-0.1,0.1-0.2,0.1c-0.1,0.1-0.2,0.1-0.3,0.1c-0.1,0-0.3,0.1-0.4,0.1s-0.4,0-0.6,0
		c-0.7,0-1.4-0.2-1.7-0.5c-0.3-0.3-0.5-0.9-0.5-1.7v-5.5C67.9,19.9,67.1,19.9,67.1,19.9z"/>
</g>
</svg>
