<?xml version="1.0" encoding="utf-8"?>
<!-- Generator: Adobe Illustrator 25.2.3, SVG Export Plug-In . SVG Version: 6.00 Build 0)  -->
<svg version="1.1" id="Layer_1" xmlns="http://www.w3.org/2000/svg" xmlns:xlink="http://www.w3.org/1999/xlink" x="0px" y="0px"
	 viewBox="0 0 112 32" style="enable-background:new 0 0 112 32;" xml:space="preserve">
<style type="text/css">
	.st0{fill:#DEFD9B;}
	.st1{enable-background:new    ;}
	.st2{fill:#1E1A1A;}
</style>
<g id="Layer_1_2_">
	<g id="Layer_1_1_">
		<path id="Rectangle_27" class="st0" d="M11.2,0h89.6C107,0,112,4.8,112,10.7v10.7c0,5.9-5,10.7-11.2,10.7H11.2C5,32,0,27.2,0,21.3
			V10.7C0,4.8,5,0,11.2,0z"/>
	</g>
	<g id="Layer_2_2_">
		<g class="st1">
			<path class="st2" d="M15.8,17.4c0-0.9,0.1-1.7,0.4-2.5s0.7-1.3,1.1-1.9s1.1-0.9,1.8-1.2c0.7-0.3,1.5-0.4,2.3-0.4
				c0.4,0,0.7,0,0.9,0.1c0.3,0.1,0.5,0.1,0.7,0.2c0.2,0.1,0.4,0.2,0.5,0.2c0.1,0,0.3,0.2,0.3,0.2c0.1,0.1,0.2,0.2,0.2,0.3
				s0.1,0.2,0.1,0.4c0,0.1,0,0.2-0.1,0.3s0,0.3-0.1,0.3c-0.1,0-0.1,0.1-0.2,0.2c-0.1,0.1-0.2,0.1-0.3,0.1c-0.1,0-0.3,0-0.4-0.1
				c-0.1-0.1-0.3-0.1-0.4-0.2c-0.1-0.1-0.4-0.1-0.6-0.2c-0.2-0.1-0.5-0.1-0.7-0.1c-0.5,0-0.9,0.1-1.3,0.3c-0.4,0.2-0.7,0.4-1,0.8
				c-0.3,0.4-0.6,0.8-0.7,1.2c-0.2,0.4-0.3,1.1-0.3,1.8c0,0.6,0.1,1.2,0.3,1.6c0.2,0.4,0.4,0.9,0.7,1.2c0.4,0.3,0.7,0.5,1.1,0.7
				c0.5,0.2,0.9,0.3,1.4,0.3c0.3,0,0.6,0,0.8-0.1c0.3-0.1,0.4-0.1,0.6-0.2c0.2-0.1,0.3-0.1,0.4-0.2c0.1-0.1,0.1,0,0.2,0
				c0.1,0,0.2,0,0.3,0.1c0.1,0.1,0.2,0.1,0.2,0.1s0.1,0.1,0.1,0.2c0,0.1,0,0.2,0,0.3c0,0.1,0,0.3-0.1,0.4c-0.1,0.1-0.1,0.2-0.2,0.3
				c-0.1,0.1-0.2,0.2-0.4,0.3c-0.2,0.1-0.4,0.2-0.7,0.3c-0.3,0.1-0.5,0.1-0.8,0.2s-0.7,0.1-1,0.1c-0.7,0-1.5-0.1-2.1-0.4
				c-0.7-0.3-1.2-0.6-1.6-1s-0.8-1-1-1.6C15.9,18.9,15.8,18.1,15.8,17.4z"/>
			<path class="st2" d="M26.4,17.2c0-0.9,0.1-1.7,0.4-2.4c0.3-0.7,0.7-1.2,1.1-1.8c0.5-0.5,1-0.9,1.8-1.1c0.7-0.3,1.4-0.4,2.2-0.4
				c0.7,0,1.5,0.1,2.1,0.4s1.2,0.6,1.7,1.1c0.5,0.4,0.8,1,1.1,1.7s0.4,1.3,0.4,2.1c0,0.9-0.1,1.7-0.4,2.4c-0.3,0.7-0.7,1.2-1.1,1.8
				c-0.5,0.4-1,0.9-1.8,1.1c-0.7,0.3-1.4,0.4-2.2,0.4c-0.7,0-1.5-0.1-2.1-0.4c-0.7-0.3-1.2-0.6-1.7-1.1c-0.5-0.4-0.8-1-1.1-1.7
				C26.5,18.8,26.4,18,26.4,17.2z M28.5,17c0,0.6,0.1,1.2,0.3,1.7c0.2,0.5,0.4,0.9,0.7,1.2c0.4,0.4,0.7,0.6,1,0.8
				c0.4,0.2,0.8,0.3,1.3,0.3c0.5,0,0.9-0.1,1.3-0.3c0.4-0.2,0.7-0.4,1-0.7s0.6-0.7,0.7-1.2c0.1-0.5,0.3-1.1,0.3-1.7
				c0-0.6-0.1-1.2-0.3-1.7c-0.2-0.5-0.4-0.9-0.7-1.2c-0.4-0.4-0.7-0.6-1-0.8c-0.4-0.2-0.8-0.3-1.3-0.3s-0.9,0.1-1.3,0.3
				c-0.4,0.2-0.7,0.4-1,0.7c-0.3,0.3-0.6,0.7-0.7,1.2C28.7,15.8,28.5,16.4,28.5,17z"/>
			<path class="st2" d="M40.7,12.4c0-0.3,0.1-0.4,0.2-0.6c0.1-0.2,0.4-0.2,0.7-0.2c0.1,0,0.3,0,0.4,0.1c0.1,0.1,0.2,0.1,0.3,0.2
				c0.1,0.1,0.1,0.2,0.2,0.3c0.1,0.1,0.1,0.3,0.1,0.4l0.1,0.7l0,0c0.2-0.4,0.5-0.6,0.8-0.8c0.1-0.1,0.3-0.2,0.5-0.3
				c0.2-0.1,0.4-0.2,0.6-0.3s0.5-0.2,0.7-0.2s0.6-0.1,0.8-0.1c0.7,0,1.2,0.1,1.7,0.3c0.5,0.2,0.9,0.4,1.3,0.8
				c0.4,0.4,0.7,0.8,0.8,1.3c0.2,0.5,0.3,1.2,0.3,1.9v5.6c0,0.3-0.1,0.4-0.3,0.6c-0.2,0.2-0.4,0.3-0.7,0.3c-0.4,0-0.6-0.2-0.7-0.3
				c-0.2-0.1-0.3-0.4-0.3-0.6v-5.3c0-0.5-0.1-1-0.2-1.3c-0.1-0.4-0.3-0.7-0.5-0.9c-0.2-0.2-0.5-0.4-0.8-0.5
				c-0.4-0.1-0.7-0.2-1.1-0.2c-0.3,0-0.5,0-0.7,0.1c-0.2,0.1-0.4,0.1-0.6,0.2s-0.4,0.2-0.5,0.3c-0.1,0.1-0.3,0.2-0.4,0.4
				c-0.3,0.3-0.6,0.5-0.7,0.9v6.5c0,0.3-0.1,0.4-0.3,0.6c-0.2,0.2-0.4,0.3-0.7,0.3c-0.4,0-0.6-0.2-0.7-0.3c-0.2-0.1-0.3-0.4-0.3-0.6
				L40.7,12.4L40.7,12.4z"/>
			<path class="st2" d="M54.3,12.4c0-0.3,0.1-0.4,0.2-0.6c0.1-0.2,0.4-0.2,0.7-0.2c0.1,0,0.3,0,0.4,0.1c0.1,0.1,0.2,0.1,0.3,0.2
				c0.1,0.1,0.1,0.2,0.2,0.3s0.1,0.3,0.1,0.4l0.1,0.7l0,0c0.2-0.4,0.5-0.6,0.8-0.8c0.1-0.1,0.3-0.2,0.5-0.3s0.4-0.2,0.6-0.3
				s0.5-0.2,0.7-0.2s0.6-0.1,0.8-0.1c0.7,0,1.2,0.1,1.7,0.3c0.5,0.2,0.9,0.4,1.3,0.8c0.4,0.4,0.7,0.8,0.8,1.3
				c0.2,0.5,0.3,1.2,0.3,1.9v5.6c0,0.3-0.1,0.4-0.3,0.6c-0.2,0.2-0.4,0.3-0.7,0.3c-0.4,0-0.6-0.1-0.7-0.3s-0.3-0.4-0.3-0.6v-5.3
				c0-0.5-0.1-1-0.2-1.3S61.2,14.1,61,14c-0.2-0.2-0.5-0.4-0.8-0.5c-0.4-0.1-0.7-0.2-1.1-0.2c-0.3,0-0.5,0-0.7,0.1
				c-0.2,0.1-0.4,0.1-0.6,0.2c-0.2,0.1-0.4,0.2-0.5,0.3c-0.1,0.1-0.3,0.2-0.4,0.4c-0.3,0.3-0.6,0.5-0.7,0.9v6.5
				c0,0.3-0.1,0.4-0.3,0.6s-0.4,0.3-0.7,0.3s-0.6-0.1-0.7-0.3s-0.3-0.4-0.3-0.6L54.3,12.4L54.3,12.4z"/>
			<path class="st2" d="M69.3,17.2L69.3,17.2c0,0.6,0.1,1.2,0.3,1.6c0.2,0.4,0.4,0.8,0.7,1.2c0.4,0.4,0.7,0.5,1.1,0.7
				s0.9,0.3,1.5,0.3c0.4,0,0.7,0,1-0.1c0.3-0.1,0.6-0.1,0.7-0.2c0.2-0.1,0.4-0.1,0.6-0.2c0.2-0.1,0.3-0.1,0.4-0.1s0.2,0,0.3,0.1
				c0.1,0.1,0.2,0.1,0.2,0.1s0.1,0.1,0.1,0.2c0,0.1,0,0.2,0,0.3s0,0.3-0.1,0.4c-0.1,0.1-0.1,0.2-0.2,0.3c-0.1,0.1-0.3,0.2-0.5,0.3
				c-0.2,0.1-0.5,0.2-0.7,0.3c-0.3,0.1-0.7,0.2-1,0.3c-0.4,0.1-0.8,0.1-1.3,0.1c-0.8,0-1.5-0.1-2.1-0.4c-0.7-0.3-1.2-0.6-1.7-1
				s-0.8-1-1-1.6s-0.3-1.5-0.3-2.3c0-0.9,0.1-1.8,0.4-2.5c0.3-0.7,0.7-1.3,1.1-1.8s1-0.9,1.7-1.2c0.7-0.3,1.3-0.4,2.1-0.4
				c0.7,0,1.2,0.1,1.8,0.3c0.6,0.2,0.9,0.5,1.4,0.9s0.7,0.9,0.8,1.4c0.2,0.5,0.3,1.2,0.3,1.9c0,0.4-0.1,0.7-0.3,0.9
				s-0.5,0.3-0.8,0.3L69.3,17.2L69.3,17.2z M74.8,15.8c-0.1-1-0.4-1.7-0.8-2.1s-1-0.7-1.9-0.7c-0.4,0-0.7,0.1-0.9,0.2
				c-0.3,0.1-0.6,0.3-0.8,0.5c-0.3,0.3-0.5,0.5-0.7,0.9c-0.2,0.4-0.3,0.8-0.4,1.2H74.8z"/>
			<path class="st2" d="M79.4,17.4c0-0.9,0.1-1.7,0.4-2.5c0.3-0.8,0.7-1.3,1.1-1.9s1.1-0.9,1.8-1.2c0.7-0.3,1.4-0.4,2.2-0.4
				c0.4,0,0.7,0,0.9,0.1c0.3,0.1,0.5,0.1,0.7,0.2c0.2,0.1,0.4,0.2,0.5,0.2s0.3,0.2,0.3,0.2c0.1,0.1,0.2,0.2,0.2,0.3
				c0,0.1,0.1,0.2,0.1,0.4c0,0.1,0,0.2-0.1,0.3s0.1,0.4,0.1,0.4s-0.1,0.1-0.2,0.2c-0.1,0.1-0.2,0.1-0.3,0.1c-0.1,0-0.3,0-0.4-0.1
				c-0.1-0.1-0.3-0.1-0.4-0.2c-0.1-0.1-0.4-0.1-0.6-0.2c-0.2-0.1-0.5-0.1-0.7-0.1c-0.5,0-0.9,0.1-1.3,0.3c-0.4,0.2-0.7,0.4-1,0.8
				c-0.3,0.4-0.6,0.8-0.7,1.2s-0.3,1.1-0.3,1.8c0,0.6,0.1,1.2,0.3,1.6s0.4,0.9,0.7,1.2c0.4,0.3,0.7,0.5,1.1,0.7s0.9,0.3,1.4,0.3
				c0.3,0,0.6,0,0.8-0.1c0.3-0.1,0.4-0.1,0.6-0.2c0.2-0.1,0.3-0.1,0.4-0.2c0.1-0.1,0.2-0.1,0.4-0.1c0.1,0,0.2,0,0.3,0.1
				c0.1,0.1,0.2,0.1,0.2,0.1s0.1,0.1,0.1,0.2c0,0.1,0,0.2,0,0.3s0,0.3-0.1,0.4s-0.1,0.2-0.2,0.3c-0.1,0.1-0.2,0.2-0.4,0.3
				c-0.2,0.1-0.4,0.2-0.7,0.3c-0.3,0.1-0.5,0.1-0.8,0.2c-0.4,0.1-0.7,0.1-1,0.1c-0.7,0-1.5-0.1-2.1-0.4c-0.7-0.3-1.2-0.6-1.6-1
				c-0.4-0.4-0.8-1-1-1.6S79.4,18.1,79.4,17.4z"/>
			<path class="st2" d="M90.2,13.2c-0.2,0-0.4-0.1-0.6-0.2c-0.2-0.1-0.2-0.4-0.2-0.5s0.1-0.4,0.2-0.5s0.3-0.2,0.6-0.2h1.2l0.3-2
				c0-0.3,0.2-0.5,0.3-0.7S92.3,9,92.6,9c0.3,0,0.5,0.1,0.6,0.2s0.2,0.4,0.2,0.6v2h2.3c0.2,0,0.4,0.1,0.6,0.2
				c0.2,0.1,0.2,0.4,0.2,0.5s-0.1,0.4-0.2,0.5c-0.1,0.1-0.3,0.2-0.6,0.2h-2.3v6c0,0.5,0.1,1,0.3,1.2c0.2,0.2,0.6,0.4,0.9,0.4
				c0.2,0,0.3,0,0.5,0s0.2,0,0.3-0.1c0.1-0.1,0.2-0.1,0.3-0.1s0.2,0,0.2,0c0.1,0,0.2,0,0.3,0s0.1,0.1,0.2,0.1
				c0.1,0.1,0.1,0.1,0.1,0.2c0,0.1,0.1,0.2,0.1,0.3c0,0.2,0,0.3-0.1,0.4c-0.1,0.1-0.1,0.2-0.2,0.3S96,21.9,95.9,22
				c-0.1,0.1-0.3,0.1-0.4,0.2c-0.2,0.1-0.4,0.1-0.6,0.2s-0.5,0.1-0.7,0.1c-0.9,0-1.7-0.2-2.1-0.6c-0.5-0.4-0.7-1.1-0.7-2v-6.5
				L90.2,13.2L90.2,13.2z"/>
		</g>
	</g>
</g>
</svg>
