<?xml version="1.0" encoding="utf-8"?>
<!-- Generator: Adobe Illustrator 25.2.3, SVG Export Plug-In . SVG Version: 6.00 Build 0)  -->
<svg version="1.1" id="Layer_1" xmlns="http://www.w3.org/2000/svg" xmlns:xlink="http://www.w3.org/1999/xlink" x="0px" y="0px"
	 viewBox="0 0 40 40" style="enable-background:new 0 0 40 40;" xml:space="preserve">
<style type="text/css">
	.st0{fill:#FF3B4D;}
	.st1{fill:#2B2727;}
</style>
<g id="Layer_1_1_">
	<path id="Rectangle_49" class="st0" d="M24,40h-8C7.2,40,0,32.8,0,24v-8C0,7.2,7.2,0,16,0h8c8.8,0,16,7.2,16,16v8
		C40,32.8,32.8,40,24,40z"/>
</g>
<g id="Layer_3">
	<path id="Path_28" class="st1" d="M7,24c0,4.4,3.6,8,8,8h10c4.4,0,8-3.6,8-8l0,0v-0.1c0.1-0.8-0.5-1.4-1.3-1.5
		c-0.8-0.1-1.4,0.5-1.5,1.3c0,0.1,0,0.2,0,0.2V24l0,0c0,2.9-2.4,5.2-5.2,5.2H15c-2.9,0-5.2-2.4-5.2-5.2l0,0v-0.1
		c0.1-0.8-0.5-1.4-1.3-1.5S7.1,22.9,7,23.7c0,0.1,0,0.2,0,0.2V24z"/>
	<path id="Path_29" class="st1" d="M19,24.8c0.1,0.1,0.3,0.2,0.5,0.3l0,0c0.3,0.1,0.7,0.1,1,0l0,0c0.2-0.1,0.3-0.2,0.5-0.3l6.4-6.4
		c0.5-0.6,0.4-1.5-0.2-1.9c-0.5-0.4-1.3-0.4-1.8,0l-4,4V7c0-0.8-0.6-1.4-1.4-1.4S18.6,6.2,18.6,7v13.5l-4-4
		c-0.5-0.6-1.4-0.7-1.9-0.2c-0.6,0.5-0.7,1.4-0.2,1.9c0,0.1,0.1,0.1,0.2,0.2L19,24.8z"/>
</g>
</svg>
