<?xml version="1.0" encoding="utf-8"?>
<!-- Generator: Adobe Illustrator 25.2.3, SVG Export Plug-In . SVG Version: 6.00 Build 0)  -->
<svg version="1.1" xmlns="http://www.w3.org/2000/svg" xmlns:xlink="http://www.w3.org/1999/xlink" x="0px" y="0px"
	 viewBox="0 0 40 40" style="enable-background:new 0 0 40 40;" xml:space="preserve">
<style type="text/css">
	.st0{display:none;}
	.st1{display:inline;}
	.st2{fill:#DEFD9B;}
	.st3{fill:#FF3B4D;}
	.st4{display:inline;fill:#2B2727;}
	.st5{fill:#2B2727;}
</style>
<g id="Layer_1" class="st0">
	<g id="Layer_1_2_" transform="translate(280 524)" class="st1">
		<path id="Rectangle_42_1_" class="st2" d="M-264-524h8c8.8,0,16,7.2,16,16v8c0,8.8-7.2,16-16,16h-8c-8.8,0-16-7.2-16-16v-8
			C-280-516.8-272.8-524-264-524z"/>
	</g>
</g>
<g id="Layer_2">
	<g id="Layer_1_1_" transform="translate(280 524)">
		<path id="Rectangle_42_2_" class="st3" d="M-264-524h8c8.8,0,16,7.2,16,16v8c0,8.8-7.2,16-16,16h-8c-8.8,0-16-7.2-16-16v-8
			C-280-516.8-272.8-524-264-524z"/>
	</g>
</g>
<g id="Layer_3" class="st0">
	<path class="st4" d="M22.2,29.2l6.9-9.8c2.5-3.6,1.7-8.6-2-11.1l0,0l-0.8-0.6c-0.9-0.6-2.2-0.4-2.8,0.5l-2.9,4.1
		c-0.3,0.5-0.2,1.1,0.2,1.4l2.5,1.7c0.5,0.3,0.6,0.9,0.2,1.4L17.9,25c-0.3,0.5-0.9,0.6-1.4,0.2l-2.5-1.7c-0.5-0.3-1.1-0.2-1.4,0.2
		l-2.9,4.1c-0.6,0.9-0.4,2.2,0.5,2.8l0.8,0.6C14.7,33.7,19.7,32.9,22.2,29.2z"/>
</g>
<g id="Layer_4">
	<path class="st5" d="M26.3,12.9l-12,0c-4.4,0-8,3.6-8,8l0,0v1c0,1.1,0.9,2,2,2h5c0.6,0,1-0.4,1-1v-3c0-0.6,0.4-1,1-1l10,0
		c0.6,0,1,0.4,1,1v3c0,0.6,0.4,1,1,1h5c1.1,0,2-0.9,2-2v-1C34.3,16.4,30.7,12.9,26.3,12.9z"/>
</g>
</svg>
