<?xml version="1.0" encoding="utf-8"?>
<!-- Generator: Adobe Illustrator 25.2.3, SVG Export Plug-In . SVG Version: 6.00 Build 0)  -->
<svg version="1.1" xmlns="http://www.w3.org/2000/svg" xmlns:xlink="http://www.w3.org/1999/xlink" x="0px" y="0px"
	 viewBox="0 0 100 40" style="enable-background:new 0 0 100 40;" xml:space="preserve">
<style type="text/css">
	.st0{fill:#DEFD9B;}
	.st1{display:none;}
	.st2{display:inline;}
	.st3{fill:#FF3B4D;}
	.st4{display:inline;fill:#2B2727;}
	.st5{fill:#2B2727;}
</style>
<g id="Layer_1">
	<g id="Layer_1_2_" transform="translate(280 524)">
		<path id="Rectangle_42_1_" class="st0" d="M-264-524h68c8.8,0,16,7.2,16,16v8c0,8.8-7.2,16-16,16h-68c-8.8,0-16-7.2-16-16v-8
			C-280-516.8-272.8-524-264-524z"/>
	</g>
</g>
<g id="Layer_2" class="st1">
	<g id="Layer_1_1_" transform="translate(280 524)" class="st2">
		<path id="Rectangle_42_2_" class="st3" d="M-264-524h8c8.8,0,16,7.2,16,16v8c0,8.8-7.2,16-16,16h-8c-8.8,0-16-7.2-16-16v-8
			C-280-516.8-272.8-524-264-524z"/>
	</g>
</g>
<g id="Layer_3" class="st1">
	<path class="st4" d="M22.2,29.2l6.9-9.8c2.5-3.6,1.7-8.6-2-11.1l0,0l-0.8-0.6c-0.9-0.6-2.2-0.4-2.8,0.5l-2.9,4.1
		c-0.3,0.5-0.2,1.1,0.2,1.4l2.5,1.7c0.5,0.3,0.6,0.9,0.2,1.4L17.9,25c-0.3,0.5-0.9,0.6-1.4,0.2l-2.5-1.7c-0.5-0.3-1.1-0.2-1.4,0.2
		l-2.9,4.1c-0.6,0.9-0.4,2.2,0.5,2.8l0.8,0.6C14.7,33.7,19.7,32.9,22.2,29.2z"/>
</g>
<g id="Layer_4" class="st1">
	<path class="st4" d="M26.3,12.9l-12,0c-4.4,0-8,3.6-8,8l0,0v1c0,1.1,0.9,2,2,2h5c0.6,0,1-0.4,1-1v-3c0-0.6,0.4-1,1-1l10,0
		c0.6,0,1,0.4,1,1v3c0,0.6,0.4,1,1,1h5c1.1,0,2-0.9,2-2v-1C34.3,16.4,30.7,12.9,26.3,12.9z"/>
</g>
<g id="Layer_5">
	<g>
		<path class="st5" d="M13.8,14.4c0-0.2,0.1-0.4,0.2-0.5s0.3-0.2,0.6-0.2s0.5,0.1,0.6,0.2c0.1,0.1,0.2,0.3,0.2,0.5v10
			c0,0.5,0,1-0.1,1.4c0,0.4-0.1,0.7-0.2,1.1c-0.1,0.3-0.2,0.6-0.4,0.8s-0.3,0.5-0.5,0.7c-0.3,0.3-0.6,0.5-1,0.7s-0.6,0.2-0.9,0.2
			c-0.2,0-0.4-0.1-0.5-0.2s-0.2-0.3-0.2-0.4c0-0.1,0-0.2,0.1-0.3s0.1-0.2,0.3-0.2c0.3-0.1,0.5-0.3,0.7-0.4s0.4-0.3,0.5-0.6
			s0.3-0.5,0.4-0.9s0.1-0.8,0.1-1.3V14.4z"/>
		<path class="st5" d="M18.6,21.6c0-0.7,0.1-1.4,0.3-2c0.2-0.6,0.5-1.1,0.9-1.5c0.4-0.4,0.9-0.7,1.4-0.9c0.5-0.2,1.1-0.3,1.8-0.3
			c0.6,0,1.2,0.1,1.7,0.3c0.5,0.2,1,0.5,1.3,0.9c0.4,0.4,0.7,0.9,0.9,1.4c0.2,0.5,0.3,1.2,0.3,1.8c0,0.7-0.1,1.4-0.3,2
			s-0.5,1.1-0.9,1.5c-0.4,0.4-0.9,0.7-1.4,0.9c-0.5,0.2-1.1,0.3-1.8,0.3c-0.6,0-1.2-0.1-1.7-0.3c-0.5-0.2-1-0.5-1.3-0.9
			c-0.4-0.4-0.7-0.9-0.9-1.4S18.6,22.2,18.6,21.6z M20.2,21.4c0,0.5,0.1,1,0.2,1.4c0.1,0.4,0.3,0.8,0.6,1s0.5,0.5,0.9,0.6
			s0.7,0.2,1,0.2c0.4,0,0.7-0.1,1-0.2c0.3-0.1,0.6-0.3,0.8-0.6s0.4-0.6,0.5-1c0.1-0.4,0.2-0.9,0.2-1.4c0-0.5-0.1-1-0.2-1.4
			c-0.1-0.4-0.3-0.8-0.6-1s-0.5-0.5-0.9-0.6c-0.3-0.1-0.7-0.2-1-0.2c-0.4,0-0.7,0.1-1.1,0.2c-0.3,0.1-0.6,0.3-0.8,0.6
			c-0.2,0.3-0.4,0.6-0.6,1C20.3,20.4,20.2,20.8,20.2,21.4z"/>
		<path class="st5" d="M29.8,14.2c0-0.2,0-0.3,0.1-0.4s0.1-0.2,0.2-0.3c0.1-0.1,0.2-0.2,0.3-0.2s0.3-0.1,0.4-0.1
			c0.2,0,0.3,0,0.4,0.1c0.1,0.1,0.2,0.1,0.3,0.2s0.2,0.2,0.2,0.3c0.1,0.1,0.1,0.3,0.1,0.4c0,0.2,0,0.3-0.1,0.4
			c-0.1,0.1-0.1,0.2-0.2,0.3c-0.1,0.1-0.2,0.2-0.3,0.2s-0.3,0.1-0.4,0.1c-0.2,0-0.3,0-0.4-0.1c-0.1-0.1-0.2-0.1-0.3-0.2
			s-0.2-0.2-0.2-0.3S29.8,14.4,29.8,14.2z M30.1,17.6c0-0.2,0.1-0.4,0.2-0.5c0.1-0.1,0.3-0.2,0.6-0.2s0.5,0.1,0.6,0.2
			s0.2,0.3,0.2,0.5v7.5c0,0.2-0.1,0.4-0.2,0.5c-0.1,0.1-0.3,0.2-0.6,0.2s-0.5-0.1-0.6-0.2c-0.1-0.1-0.2-0.3-0.2-0.5V17.6z"/>
		<path class="st5" d="M35.3,17.6c0-0.2,0.1-0.4,0.2-0.5s0.3-0.2,0.5-0.2c0.1,0,0.2,0,0.3,0s0.2,0.1,0.2,0.1s0.1,0.1,0.1,0.2
			s0.1,0.2,0.1,0.3l0.1,0.6h0c0.2-0.3,0.4-0.5,0.7-0.7c0.1-0.1,0.2-0.2,0.4-0.3s0.3-0.2,0.5-0.2s0.4-0.1,0.6-0.2
			c0.2,0,0.4-0.1,0.7-0.1c0.5,0,1,0.1,1.4,0.2s0.8,0.4,1,0.7c0.3,0.3,0.5,0.7,0.7,1.1s0.2,1,0.2,1.6v4.7c0,0.2-0.1,0.4-0.2,0.5
			c-0.1,0.1-0.3,0.2-0.6,0.2s-0.5-0.1-0.6-0.2c-0.1-0.1-0.2-0.3-0.2-0.5v-4.5c0-0.4,0-0.8-0.1-1.1c-0.1-0.3-0.2-0.6-0.4-0.8
			c-0.2-0.2-0.4-0.4-0.7-0.5c-0.3-0.1-0.5-0.1-0.9-0.1c-0.2,0-0.4,0-0.5,0.1c-0.2,0-0.3,0.1-0.5,0.2c-0.1,0.1-0.3,0.2-0.4,0.2
			s-0.2,0.2-0.3,0.3c-0.2,0.2-0.4,0.5-0.6,0.8v5.5c0,0.2-0.1,0.4-0.2,0.5c-0.1,0.1-0.3,0.2-0.6,0.2s-0.5-0.1-0.6-0.2
			c-0.1-0.1-0.2-0.3-0.2-0.5V17.6z"/>
		<path class="st5" d="M51.2,20.1c0-1,0.1-2,0.4-2.8s0.7-1.5,1.2-2.1s1.1-1,1.8-1.3c0.7-0.3,1.5-0.4,2.3-0.4c0.4,0,0.7,0,1,0.1
			s0.6,0.1,0.8,0.2s0.4,0.2,0.6,0.3s0.3,0.2,0.3,0.3c0.1,0.1,0.2,0.2,0.2,0.3s0.1,0.2,0.1,0.3c0,0.1,0,0.2,0,0.3s-0.1,0.1-0.1,0.2
			c-0.1,0.1-0.1,0.1-0.2,0.1s-0.2,0-0.3,0c-0.1,0-0.2,0-0.4-0.1s-0.3-0.2-0.5-0.2s-0.4-0.2-0.7-0.2s-0.6-0.1-1-0.1
			c-0.5,0-1.1,0.1-1.5,0.3s-0.9,0.5-1.2,0.9s-0.6,0.9-0.8,1.6c-0.2,0.6-0.3,1.3-0.3,2.2c0,0.7,0.1,1.4,0.3,2
			c0.2,0.6,0.5,1.1,0.8,1.5c0.4,0.4,0.8,0.7,1.3,0.9s1,0.3,1.6,0.3c0.4,0,0.7,0,1-0.1c0.3-0.1,0.5-0.1,0.7-0.2
			c0.2-0.1,0.4-0.2,0.5-0.2s0.3-0.1,0.4-0.1c0.1,0,0.2,0,0.2,0s0.1,0.1,0.2,0.1c0,0.1,0.1,0.1,0.1,0.2c0,0.1,0,0.1,0,0.2
			c0,0.1,0,0.2-0.1,0.3s-0.1,0.2-0.2,0.3c-0.1,0.1-0.2,0.2-0.4,0.3c-0.2,0.1-0.4,0.2-0.7,0.3c-0.3,0.1-0.6,0.2-0.9,0.2
			C57.4,25.9,57,26,56.6,26c-0.8,0-1.5-0.1-2.2-0.4s-1.2-0.7-1.7-1.2s-0.8-1.1-1.1-1.8C51.3,21.8,51.2,21,51.2,20.1z"/>
		<path class="st5" d="M62.8,13.5c0-0.2,0.1-0.4,0.2-0.5c0.1-0.1,0.3-0.2,0.6-0.2s0.5,0.1,0.6,0.2s0.2,0.3,0.2,0.5v3.4
			c0,0.2,0,0.4,0,0.6c0,0.2,0,0.4,0,0.6h0c0.2-0.2,0.4-0.5,0.7-0.6c0.1-0.1,0.2-0.2,0.4-0.2s0.3-0.1,0.5-0.2s0.4-0.1,0.6-0.1
			s0.4-0.1,0.6-0.1c0.5,0,1,0.1,1.4,0.2s0.8,0.4,1,0.7c0.3,0.3,0.5,0.7,0.7,1.1s0.2,1,0.2,1.6v4.7c0,0.2-0.1,0.4-0.2,0.5
			c-0.1,0.1-0.3,0.2-0.6,0.2s-0.5-0.1-0.6-0.2c-0.1-0.1-0.2-0.3-0.2-0.5v-4.5c0-0.4,0-0.8-0.1-1.1c-0.1-0.3-0.2-0.6-0.4-0.8
			c-0.2-0.2-0.4-0.4-0.7-0.5c-0.3-0.1-0.5-0.1-0.9-0.1c-0.2,0-0.4,0-0.5,0.1c-0.2,0-0.3,0.1-0.5,0.2c-0.1,0.1-0.3,0.2-0.4,0.2
			S65,18.8,65,18.9c-0.2,0.2-0.4,0.5-0.6,0.8v5.5c0,0.2-0.1,0.4-0.2,0.5c-0.1,0.1-0.3,0.2-0.6,0.2s-0.5-0.1-0.6-0.2
			c-0.1-0.1-0.2-0.3-0.2-0.5V13.5z"/>
		<path class="st5" d="M78.7,20.2c0-0.4,0-0.7-0.1-0.9s-0.2-0.5-0.4-0.6c-0.2-0.2-0.4-0.3-0.7-0.4c-0.3-0.1-0.6-0.1-1-0.1
			c-0.4,0-0.7,0-0.9,0.1s-0.5,0.1-0.7,0.2c-0.2,0.1-0.3,0.1-0.5,0.2c-0.1,0.1-0.2,0.1-0.3,0.1c-0.2,0-0.3,0-0.4-0.1
			s-0.1-0.2-0.1-0.4c0-0.1,0-0.2,0-0.3s0.1-0.1,0.1-0.2c0.1-0.1,0.2-0.2,0.4-0.3s0.4-0.2,0.7-0.3s0.6-0.2,0.9-0.2
			c0.3-0.1,0.7-0.1,1.1-0.1c1.1,0,2,0.3,2.5,0.8c0.6,0.5,0.8,1.3,0.8,2.3v3.3c0,0.4,0,0.7,0,0.9s0,0.4,0.1,0.6
			c0,0.2,0.1,0.3,0.1,0.4s0,0.2,0,0.3c0,0.1,0,0.2,0,0.2c0,0.1-0.1,0.1-0.1,0.2c-0.1,0.1-0.1,0.1-0.2,0.1c-0.1,0-0.2,0-0.3,0
			c-0.1,0-0.3,0-0.4-0.1c-0.1-0.1-0.2-0.1-0.3-0.2c-0.1-0.1-0.1-0.2-0.2-0.4c-0.1-0.1-0.1-0.3-0.1-0.5h0c-0.2,0.2-0.4,0.4-0.7,0.6
			c-0.2,0.2-0.5,0.3-0.8,0.4C77,25.9,76.6,26,76.2,26c-0.5,0-0.9-0.1-1.3-0.2c-0.4-0.1-0.7-0.3-0.9-0.5c-0.3-0.2-0.4-0.5-0.6-0.8
			c-0.1-0.3-0.2-0.6-0.2-1c0-0.4,0.1-0.7,0.3-1c0.2-0.3,0.4-0.5,0.7-0.8c0.3-0.2,0.7-0.4,1.1-0.5c0.4-0.1,1-0.2,1.5-0.2
			c0.3,0,0.5,0,0.8,0s0.4,0,0.6,0.1c0.2,0,0.3,0.1,0.5,0.1V20.2z M78.7,22.4c-0.1,0-0.3-0.1-0.5-0.1c-0.1,0-0.3,0-0.5-0.1
			c-0.2,0-0.4,0-0.7,0c-0.7,0-1.3,0.1-1.6,0.3s-0.5,0.5-0.5,0.9c0,0.2,0,0.4,0.1,0.5c0.1,0.2,0.2,0.3,0.3,0.4
			c0.1,0.1,0.3,0.2,0.5,0.3c0.2,0.1,0.4,0.1,0.7,0.1c0.3,0,0.6-0.1,0.9-0.2s0.5-0.3,0.7-0.4c0.2-0.2,0.4-0.4,0.6-0.6V22.4z"/>
		<path class="st5" d="M83.2,18.2c-0.2,0-0.3-0.1-0.4-0.2s-0.2-0.3-0.2-0.5s0.1-0.4,0.2-0.5S83,17,83.2,17h1l0.2-1.7
			c0-0.3,0.1-0.4,0.2-0.6c0.1-0.1,0.3-0.2,0.5-0.2c0.2,0,0.4,0.1,0.5,0.2s0.2,0.3,0.2,0.5V17h1.8c0.2,0,0.3,0.1,0.4,0.2
			s0.2,0.3,0.2,0.5S88.1,18,88,18.1s-0.2,0.2-0.4,0.2h-1.8v5.1c0,0.5,0.1,0.8,0.3,1s0.4,0.3,0.8,0.3c0.1,0,0.3,0,0.3,0
			c0.1,0,0.2,0,0.3-0.1c0.1,0,0.1,0,0.2-0.1s0.1,0,0.2,0c0.1,0,0.1,0,0.2,0s0.1,0.1,0.1,0.1c0,0,0.1,0.1,0.1,0.2c0,0.1,0,0.1,0,0.2
			c0,0.1,0,0.2-0.1,0.3s-0.1,0.1-0.2,0.2c0,0-0.1,0.1-0.2,0.1s-0.2,0.1-0.3,0.2c-0.1,0-0.3,0.1-0.5,0.1c-0.2,0-0.4,0-0.6,0
			c-0.8,0-1.3-0.2-1.7-0.6s-0.6-0.9-0.6-1.7v-5.5H83.2z"/>
	</g>
</g>
</svg>
