<?xml version="1.0" encoding="utf-8"?>
<!-- Generator: Adobe Illustrator 25.2.3, SVG Export Plug-In . SVG Version: 6.00 Build 0)  -->
<svg version="1.1" xmlns="http://www.w3.org/2000/svg" xmlns:xlink="http://www.w3.org/1999/xlink" x="0px" y="0px"
	 viewBox="0 0 100 40" style="enable-background:new 0 0 100 40;" xml:space="preserve">
<style type="text/css">
	.st0{fill:#DEFD9B;}
	.st1{display:none;}
	.st2{display:inline;}
	.st3{fill:#FF3B4D;}
	.st4{display:inline;fill:#2B2727;}
	.st5{fill:#2B2727;}
</style>
<g id="Layer_1">
	<g id="Layer_1_1_">
		<g id="Layer_1_2_" transform="translate(280 524)">
			<path id="Rectangle_42_1_" class="st0" d="M-264-524h68c8.8,0,16,7.2,16,16v8c0,8.8-7.2,16-16,16h-68c-8.8,0-16-7.2-16-16v-8
				C-280-516.8-272.8-524-264-524z"/>
		</g>
	</g>
	<g id="Layer_2_1_" class="st1">
		<g id="Layer_1_3_" transform="translate(280 524)" class="st2">
			<path id="Rectangle_42_2_" class="st3" d="M-264-524h8c8.8,0,16,7.2,16,16v8c0,8.8-7.2,16-16,16h-8c-8.8,0-16-7.2-16-16v-8
				C-280-516.8-272.8-524-264-524z"/>
		</g>
	</g>
	<g id="Layer_3" class="st1">
		<path class="st4" d="M22.2,29.2l6.9-9.8c2.5-3.6,1.7-8.6-2-11.1l0,0l-0.8-0.6c-0.9-0.6-2.2-0.4-2.8,0.5l-2.9,4.1
			c-0.3,0.5-0.2,1.1,0.2,1.4l2.5,1.7c0.5,0.3,0.6,0.9,0.2,1.4L17.9,25c-0.3,0.5-0.9,0.6-1.4,0.2L14,23.5c-0.5-0.3-1.1-0.2-1.4,0.2
			l-2.9,4.1c-0.6,0.9-0.4,2.2,0.5,2.8l0.8,0.6C14.7,33.7,19.7,32.9,22.2,29.2z"/>
	</g>
	<g id="Layer_4" class="st1">
		<path class="st4" d="M26.3,12.9h-12c-4.4,0-8,3.6-8,8l0,0v1c0,1.1,0.9,2,2,2h5c0.6,0,1-0.4,1-1v-3c0-0.6,0.4-1,1-1h10
			c0.6,0,1,0.4,1,1v3c0,0.6,0.4,1,1,1h5c1.1,0,2-0.9,2-2v-1C34.3,16.4,30.7,12.9,26.3,12.9z"/>
	</g>
</g>
<g id="Layer_2">
	<g>
		<path class="st5" d="M12.3,13.4c0-0.3,0.1-0.6,0.3-0.7c0.2-0.2,0.5-0.3,0.8-0.3s0.7,0.1,0.8,0.3c0.2,0.2,0.3,0.4,0.3,0.7v10.9
			c0,0.6,0,1.1-0.1,1.5s-0.1,0.8-0.2,1.2s-0.2,0.6-0.4,0.9s-0.4,0.5-0.6,0.7c-0.4,0.4-0.7,0.6-1.1,0.8s-0.8,0.3-1.1,0.3
			c-0.3,0-0.6-0.1-0.7-0.2C10,29.3,10,29.1,10,28.9c0-0.2,0-0.3,0.1-0.5s0.2-0.2,0.3-0.3c0.3-0.1,0.5-0.3,0.7-0.5s0.4-0.4,0.6-0.6
			s0.3-0.5,0.4-0.9s0.1-0.8,0.1-1.3V13.4z"/>
		<path class="st5" d="M17.2,21.2c0-0.8,0.1-1.6,0.4-2.2c0.2-0.7,0.6-1.2,1-1.7c0.4-0.5,1-0.8,1.6-1s1.3-0.4,2.1-0.4
			c0.7,0,1.4,0.1,1.9,0.4s1.1,0.6,1.5,1c0.4,0.4,0.8,1,1,1.6c0.2,0.6,0.4,1.3,0.4,2c0,0.8-0.1,1.6-0.4,2.2c-0.2,0.7-0.6,1.2-1,1.7
			c-0.4,0.5-1,0.8-1.6,1s-1.3,0.4-2.1,0.4c-0.7,0-1.4-0.1-2-0.4s-1.1-0.6-1.5-1c-0.4-0.4-0.8-1-1-1.6C17.3,22.6,17.2,22,17.2,21.2z
			 M19.4,21c0,0.6,0.1,1.1,0.2,1.5s0.3,0.8,0.6,1.1s0.5,0.5,0.9,0.7s0.7,0.2,1.1,0.2c0.4,0,0.7-0.1,1.1-0.2s0.6-0.4,0.9-0.6
			s0.4-0.6,0.6-1.1s0.2-0.9,0.2-1.5c0-0.6-0.1-1-0.2-1.5s-0.3-0.8-0.6-1.1s-0.5-0.5-0.9-0.7s-0.7-0.2-1.1-0.2
			c-0.4,0-0.7,0.1-1.1,0.2s-0.6,0.4-0.9,0.6s-0.4,0.6-0.6,1.1S19.4,20.5,19.4,21z"/>
		<path class="st5" d="M29.2,13.1c0-0.2,0-0.4,0.1-0.5s0.2-0.3,0.3-0.4s0.3-0.2,0.4-0.3s0.4-0.1,0.6-0.1c0.2,0,0.4,0,0.5,0.1
			s0.3,0.2,0.4,0.3s0.2,0.3,0.3,0.4c0.1,0.2,0.1,0.3,0.1,0.5c0,0.2,0,0.4-0.1,0.5s-0.2,0.3-0.3,0.4s-0.3,0.2-0.4,0.3
			s-0.4,0.1-0.6,0.1c-0.2,0-0.4,0-0.5-0.1s-0.3-0.2-0.4-0.3s-0.2-0.3-0.3-0.4S29.2,13.3,29.2,13.1z M29.5,17c0-0.3,0.1-0.5,0.3-0.7
			s0.5-0.2,0.8-0.2s0.6,0.1,0.8,0.2s0.3,0.4,0.3,0.7v8.1c0,0.3-0.1,0.5-0.3,0.7S31,26,30.6,26s-0.6-0.1-0.8-0.3s-0.3-0.4-0.3-0.7V17
			z"/>
		<path class="st5" d="M34.8,16.9c0-0.3,0.1-0.5,0.2-0.7s0.4-0.2,0.7-0.2c0.1,0,0.3,0,0.4,0.1s0.2,0.1,0.3,0.2s0.1,0.2,0.2,0.3
			s0.1,0.2,0.1,0.4l0.1,0.6h0c0.2-0.3,0.4-0.5,0.7-0.8c0.1-0.1,0.3-0.2,0.4-0.3s0.3-0.2,0.5-0.2s0.4-0.1,0.6-0.2s0.5-0.1,0.7-0.1
			c0.6,0,1.1,0.1,1.5,0.3s0.8,0.4,1.2,0.8s0.6,0.8,0.7,1.3s0.3,1.1,0.3,1.7v5.1c0,0.3-0.1,0.5-0.3,0.7S42.9,26,42.5,26
			s-0.6-0.1-0.8-0.3s-0.3-0.4-0.3-0.7v-4.8c0-0.4,0-0.8-0.1-1.2c-0.1-0.3-0.2-0.6-0.4-0.8s-0.4-0.4-0.7-0.5s-0.5-0.2-0.9-0.2
			c-0.2,0-0.4,0-0.5,0.1c-0.2,0-0.3,0.1-0.5,0.2c-0.1,0.1-0.3,0.2-0.4,0.2s-0.2,0.2-0.3,0.3c-0.2,0.2-0.4,0.5-0.6,0.8v5.8
			c0,0.3-0.1,0.5-0.3,0.7S36.3,26,35.9,26s-0.6-0.1-0.8-0.3s-0.3-0.4-0.3-0.7V16.9z"/>
		<path class="st5" d="M51.3,19.7c0-1.1,0.2-2.2,0.5-3.1s0.8-1.7,1.3-2.3s1.3-1.1,2-1.4c0.8-0.3,1.7-0.5,2.6-0.5
			c0.4,0,0.8,0,1.1,0.1s0.6,0.1,0.9,0.2c0.3,0.1,0.5,0.2,0.7,0.3s0.3,0.2,0.4,0.3c0.1,0.1,0.2,0.2,0.3,0.4s0.1,0.3,0.1,0.4
			c0,0.1,0,0.2-0.1,0.3s-0.1,0.2-0.2,0.3s-0.2,0.1-0.3,0.2s-0.2,0.1-0.3,0.1c-0.1,0-0.3,0-0.4-0.1s-0.3-0.2-0.5-0.2
			s-0.4-0.2-0.7-0.2s-0.6-0.1-1.1-0.1c-0.6,0-1.1,0.1-1.6,0.3s-0.9,0.6-1.3,1s-0.7,1-0.9,1.6s-0.3,1.4-0.3,2.3
			c0,0.8,0.1,1.5,0.3,2.1s0.5,1.1,0.9,1.5s0.8,0.7,1.3,0.9s1.1,0.3,1.7,0.3c0.4,0,0.8,0,1.1-0.1s0.5-0.2,0.7-0.2s0.4-0.2,0.5-0.2
			s0.3-0.1,0.4-0.1c0.1,0,0.2,0,0.3,0.1s0.2,0.1,0.2,0.2s0.1,0.1,0.1,0.2s0.1,0.2,0.1,0.3c0,0.1,0,0.3-0.1,0.4S61,25,60.9,25.1
			s-0.3,0.2-0.5,0.3s-0.5,0.2-0.7,0.3S59,26,58.6,26s-0.8,0.1-1.3,0.1c-0.9,0-1.7-0.1-2.5-0.4S53.5,25,53,24.4s-0.9-1.2-1.2-2
			S51.3,20.7,51.3,19.7z"/>
		<path class="st5" d="M63.5,12.5c0-0.3,0.1-0.5,0.3-0.7s0.5-0.2,0.8-0.2s0.6,0.1,0.8,0.2s0.3,0.4,0.3,0.7v3.4c0,0.2,0,0.5,0,0.7
			s0,0.5-0.1,0.7h0c0.2-0.3,0.4-0.5,0.7-0.7c0.1-0.1,0.3-0.2,0.4-0.2s0.3-0.2,0.5-0.2s0.4-0.1,0.6-0.2s0.4-0.1,0.7-0.1
			c0.6,0,1.1,0.1,1.5,0.3s0.8,0.4,1.2,0.8s0.6,0.8,0.7,1.3s0.3,1.1,0.3,1.7v5.1c0,0.3-0.1,0.5-0.3,0.7S71.6,26,71.2,26
			s-0.6-0.1-0.8-0.3s-0.3-0.4-0.3-0.7v-4.8c0-0.4,0-0.8-0.1-1.2c-0.1-0.3-0.2-0.6-0.4-0.8s-0.4-0.4-0.7-0.5s-0.5-0.2-0.9-0.2
			c-0.2,0-0.4,0-0.5,0.1c-0.2,0-0.3,0.1-0.5,0.2c-0.1,0.1-0.3,0.2-0.4,0.2s-0.2,0.2-0.3,0.3c-0.2,0.2-0.4,0.5-0.6,0.8v5.8
			c0,0.3-0.1,0.5-0.3,0.7S65,26,64.6,26S64,26,63.8,25.8s-0.3-0.4-0.3-0.7V12.5z"/>
		<path class="st5" d="M80.8,19.7c0-0.4,0-0.7-0.1-0.9s-0.2-0.5-0.4-0.6s-0.4-0.3-0.7-0.4s-0.6-0.1-1-0.1c-0.4,0-0.7,0-1,0.1
			s-0.5,0.1-0.7,0.2s-0.4,0.1-0.5,0.2s-0.3,0.1-0.4,0.1c-0.2,0-0.4-0.1-0.5-0.2s-0.2-0.3-0.2-0.5c0-0.1,0-0.2,0.1-0.3
			s0.1-0.2,0.2-0.3c0.1-0.1,0.2-0.2,0.5-0.3s0.5-0.2,0.8-0.3s0.7-0.2,1.1-0.2s0.8-0.1,1.3-0.1c1.3,0,2.3,0.3,2.9,0.9s1,1.4,1,2.5
			v3.4c0,0.4,0,0.8,0,1.1s0.1,0.5,0.1,0.7s0.1,0.3,0.1,0.4s0,0.2,0,0.3c0,0.1,0,0.2-0.1,0.3s-0.1,0.2-0.2,0.3S82.8,26,82.7,26
			s-0.3,0.1-0.4,0.1c-0.2,0-0.3,0-0.5-0.1s-0.3-0.1-0.4-0.3s-0.2-0.2-0.3-0.4s-0.1-0.3-0.2-0.5h0c-0.2,0.3-0.5,0.5-0.8,0.7
			c-0.2,0.2-0.6,0.3-0.9,0.5s-0.8,0.2-1.3,0.2c-0.5,0-1-0.1-1.4-0.2s-0.8-0.3-1.1-0.6s-0.5-0.6-0.7-0.9s-0.2-0.7-0.2-1.2
			c0-0.4,0.1-0.8,0.3-1.2s0.5-0.6,0.8-0.9s0.8-0.4,1.3-0.5s1.1-0.2,1.7-0.2c0.3,0,0.6,0,0.8,0s0.4,0,0.6,0.1c0.2,0,0.4,0.1,0.5,0.1
			V19.7z M80.8,22.2c-0.1,0-0.3-0.1-0.5-0.1C80.2,22,80,22,79.8,22c-0.2,0-0.4,0-0.7,0c-0.7,0-1.3,0.1-1.7,0.3
			c-0.4,0.2-0.5,0.5-0.5,0.9c0,0.2,0,0.4,0.1,0.5s0.2,0.3,0.3,0.4c0.1,0.1,0.3,0.2,0.5,0.3c0.2,0.1,0.4,0.1,0.7,0.1
			c0.4,0,0.7-0.1,0.9-0.2s0.5-0.3,0.7-0.4c0.2-0.2,0.4-0.4,0.6-0.6V22.2z"/>
		<path class="st5" d="M85.5,17.8c-0.2,0-0.4-0.1-0.5-0.2s-0.2-0.4-0.2-0.6c0-0.3,0.1-0.5,0.2-0.6s0.3-0.2,0.5-0.2h1l0.3-1.8
			c0.1-0.3,0.2-0.6,0.3-0.7s0.4-0.2,0.7-0.2s0.5,0.1,0.6,0.2s0.2,0.4,0.2,0.7v1.8h1.9c0.2,0,0.4,0.1,0.5,0.2s0.2,0.3,0.2,0.6
			c0,0.3-0.1,0.5-0.2,0.6s-0.3,0.2-0.5,0.2h-1.9V23c0,0.5,0.1,0.9,0.3,1.1s0.4,0.3,0.8,0.3c0.1,0,0.3,0,0.4,0s0.2,0,0.3-0.1
			s0.1,0,0.2-0.1s0.1,0,0.2,0c0.1,0,0.2,0,0.3,0s0.1,0.1,0.2,0.1s0.1,0.1,0.1,0.2s0,0.2,0,0.3c0,0.2,0,0.3-0.1,0.4s-0.1,0.2-0.2,0.3
			c-0.1,0.1-0.1,0.1-0.2,0.2s-0.2,0.1-0.4,0.2S90.1,26,89.9,26s-0.4,0.1-0.7,0.1c-0.9,0-1.6-0.2-2-0.7s-0.7-1.1-0.7-2v-5.7H85.5z"/>
	</g>
</g>
</svg>
