<?xml version="1.0" encoding="utf-8"?>
<!-- Generator: Adobe Illustrator 25.2.3, SVG Export Plug-In . SVG Version: 6.00 Build 0)  -->
<svg version="1.1" xmlns="http://www.w3.org/2000/svg" xmlns:xlink="http://www.w3.org/1999/xlink" x="0px" y="0px"
	 viewBox="0 0 56 40" style="enable-background:new 0 0 56 40;" xml:space="preserve">
<style type="text/css">
	.st0{fill:#FF3B4D;}
	.st1{display:none;}
	.st2{display:inline;fill:#2B2727;}
	.st3{fill:#2B2727;}
</style>
<g id="Layer_1">
	<g id="Layer_1_1_">
		<path class="st0" d="M40,40H16C7.2,40,0,32.8,0,24v-8C0,7.2,7.2,0,16,0h24c8.8,0,16,7.2,16,16v8C56,32.8,48.8,40,40,40z"/>
	</g>
	<g id="Layer_2_1_" class="st1">
	</g>
	<g id="Layer_3" class="st1">
		<path class="st2" d="M22.2,29.2l6.9-9.8c2.5-3.6,1.7-8.6-2-11.1l0,0l-0.8-0.6c-0.9-0.6-2.2-0.4-2.8,0.5l-2.9,4.1
			c-0.3,0.5-0.2,1.1,0.2,1.4l2.5,1.7c0.5,0.3,0.6,0.9,0.2,1.4L17.9,25c-0.3,0.5-0.9,0.6-1.4,0.2L14,23.5c-0.5-0.3-1.1-0.2-1.4,0.2
			l-2.9,4.1c-0.6,0.9-0.4,2.2,0.5,2.8l0.8,0.6C14.7,33.7,19.7,32.9,22.2,29.2z"/>
	</g>
	<g id="Layer_4" class="st1">
		<path class="st2" d="M26.3,12.9h-12c-4.4,0-8,3.6-8,8l0,0v1c0,1.1,0.9,2,2,2h5c0.6,0,1-0.4,1-1v-3c0-0.6,0.4-1,1-1h10
			c0.6,0,1,0.4,1,1v3c0,0.6,0.4,1,1,1h5c1.1,0,2-0.9,2-2v-1C34.3,16.4,30.7,12.9,26.3,12.9z"/>
	</g>
</g>
<g id="Layer_2">
	<g>
		<path class="st3" d="M16.3,14.4c0-0.5,0.1-0.9,0.4-1.2c0.3-0.3,0.6-0.4,1.2-0.4c0.2,0,0.4,0,0.6,0.1s0.3,0.1,0.5,0.2
			s0.3,0.2,0.4,0.4s0.2,0.3,0.3,0.5l4.8,7.6c0.2,0.2,0.3,0.5,0.4,0.7s0.2,0.5,0.4,0.6c0.1,0.2,0.2,0.4,0.3,0.6l0,0
			c0-0.2,0-0.5-0.1-0.7c0-0.2,0-0.5-0.1-0.8s0-0.6,0-0.9l-0.1-7.5c0-0.3,0.1-0.5,0.2-0.7c0.2-0.2,0.4-0.2,0.8-0.2
			c0.3,0,0.6,0.1,0.8,0.2c0.2,0.2,0.2,0.4,0.2,0.7v11.1c0,0.5-0.1,0.9-0.4,1.2s-0.6,0.4-1.2,0.4c-0.2,0-0.4,0-0.6-0.1
			s-0.3-0.1-0.5-0.2s-0.3-0.2-0.4-0.4s-0.2-0.3-0.3-0.5l-4.8-7.6c-0.2-0.2-0.3-0.5-0.4-0.7s-0.2-0.5-0.3-0.6
			c-0.1-0.2-0.2-0.4-0.3-0.6l0,0c0,0.2,0,0.5,0.1,0.7c0,0.2,0,0.5,0,0.8s0,0.6,0,0.9l0.1,7.5c0,0.3-0.1,0.5-0.2,0.7
			s-0.4,0.2-0.8,0.2c-0.3,0-0.6-0.1-0.8-0.2s-0.2-0.4-0.2-0.7V14.4z"/>
		<path class="st3" d="M30.4,21.6c0-0.8,0.1-1.6,0.4-2.2c0.2-0.7,0.6-1.2,1-1.7c0.4-0.5,1-0.8,1.6-1s1.3-0.4,2.1-0.4
			c0.7,0,1.4,0.1,1.9,0.4s1.1,0.6,1.5,1c0.4,0.4,0.8,1,1,1.6c0.2,0.6,0.4,1.3,0.4,2c0,0.8-0.1,1.6-0.4,2.2c-0.2,0.7-0.6,1.2-1,1.7
			c-0.4,0.5-1,0.8-1.6,1s-1.3,0.4-2.1,0.4c-0.7,0-1.4-0.1-2-0.4s-1.1-0.6-1.5-1c-0.4-0.4-0.8-1-1-1.6C30.5,23,30.4,22.3,30.4,21.6z
			 M32.6,21.4c0,0.6,0.1,1.1,0.2,1.5s0.3,0.8,0.6,1.1s0.5,0.5,0.9,0.7s0.7,0.2,1.1,0.2c0.4,0,0.7-0.1,1.1-0.2s0.6-0.4,0.9-0.6
			s0.4-0.6,0.6-1.1S38,22,38,21.4c0-0.6-0.1-1-0.2-1.5s-0.3-0.8-0.6-1.1s-0.5-0.5-0.9-0.7S35.7,18,35.3,18c-0.4,0-0.7,0.1-1.1,0.2
			s-0.6,0.4-0.9,0.6s-0.4,0.6-0.6,1.1S32.6,20.8,32.6,21.4z"/>
	</g>
</g>
</svg>
