<?xml version="1.0" encoding="utf-8"?>
<!-- Generator: Adobe Illustrator 25.2.3, SVG Export Plug-In . SVG Version: 6.00 Build 0)  -->
<svg version="1.1" xmlns="http://www.w3.org/2000/svg" xmlns:xlink="http://www.w3.org/1999/xlink" x="0px" y="0px"
	 viewBox="0 0 56 40" style="enable-background:new 0 0 56 40;" xml:space="preserve">
<style type="text/css">
	.st0{fill:#FF3B4D;}
	.st1{display:none;}
	.st2{display:inline;fill:#2B2727;}
	.st3{fill:#2B2727;}
	.st4{font-family:'RooneySans-Medium';}
	.st5{font-size:20px;}
</style>
<g id="Layer_1">
	<g id="Layer_1_1_">
		<path class="st0" d="M40,40H16C7.2,40,0,32.8,0,24v-8C0,7.2,7.2,0,16,0h24c8.8,0,16,7.2,16,16v8C56,32.8,48.8,40,40,40z"/>
	</g>
	<g id="Layer_2_1_" class="st1">
	</g>
	<g id="Layer_3" class="st1">
		<path class="st2" d="M22.2,29.2l6.9-9.8c2.5-3.6,1.7-8.6-2-11.1l0,0l-0.8-0.6c-0.9-0.6-2.2-0.4-2.8,0.5l-2.9,4.1
			c-0.3,0.5-0.2,1.1,0.2,1.4l2.5,1.7c0.5,0.3,0.6,0.9,0.2,1.4L17.9,25c-0.3,0.5-0.9,0.6-1.4,0.2L14,23.5c-0.5-0.3-1.1-0.2-1.4,0.2
			l-2.9,4.1c-0.6,0.9-0.4,2.2,0.5,2.8l0.8,0.6C14.7,33.7,19.7,32.9,22.2,29.2z"/>
	</g>
	<g id="Layer_4" class="st1">
		<path class="st2" d="M26.3,12.9h-12c-4.4,0-8,3.6-8,8l0,0v1c0,1.1,0.9,2,2,2h5c0.6,0,1-0.4,1-1v-3c0-0.6,0.4-1,1-1h10
			c0.6,0,1,0.4,1,1v3c0,0.6,0.4,1,1,1h5c1.1,0,2-0.9,2-2v-1C34.3,16.4,30.7,12.9,26.3,12.9z"/>
	</g>
</g>
<g id="Layer_2">
	<text transform="matrix(1 0 0 1 14.5406 26.3641)" class="st3 st4 st5">No</text>
</g>
</svg>
