<?xml version="1.0" encoding="utf-8"?>
<!-- Generator: Adobe Illustrator 25.2.3, SVG Export Plug-In . SVG Version: 6.00 Build 0)  -->
<svg version="1.1" xmlns="http://www.w3.org/2000/svg" xmlns:xlink="http://www.w3.org/1999/xlink" x="0px" y="0px"
	 viewBox="0 0 84 40" style="enable-background:new 0 0 84 40;" xml:space="preserve">
<style type="text/css">
	.st0{fill:#FF3B4D;}
	.st1{display:none;}
	.st2{display:inline;fill:#2B2727;}
	.st3{fill:#2B2727;}
</style>
<g id="Layer_1">
	<g id="Layer_1_1_">
		<path class="st0" d="M68,40H16C7.2,40,0,32.8,0,24v-8C0,7.2,7.2,0,16,0h52c8.8,0,16,7.2,16,16v8C84,32.8,76.8,40,68,40z"/>
	</g>
	<g id="Layer_2_1_" class="st1">
	</g>
	<g id="Layer_3" class="st1">
		<path class="st2" d="M22.2,29.2l6.9-9.8c2.5-3.6,1.7-8.6-2-11.1l0,0l-0.8-0.6c-0.9-0.6-2.2-0.4-2.8,0.5l-2.9,4.1
			c-0.3,0.5-0.2,1.1,0.2,1.4l2.5,1.7c0.5,0.3,0.6,0.9,0.2,1.4L17.9,25c-0.3,0.5-0.9,0.6-1.4,0.2L14,23.5c-0.5-0.3-1.1-0.2-1.4,0.2
			l-2.9,4.1c-0.6,0.9-0.4,2.2,0.5,2.8l0.8,0.6C14.7,33.7,19.7,32.9,22.2,29.2z"/>
	</g>
	<g id="Layer_4" class="st1">
		<path class="st2" d="M26.3,12.9h-12c-4.4,0-8,3.6-8,8l0,0v1c0,1.1,0.9,2,2,2h5c0.6,0,1-0.4,1-1v-3c0-0.6,0.4-1,1-1h10
			c0.6,0,1,0.4,1,1v3c0,0.6,0.4,1,1,1h5c1.1,0,2-0.9,2-2v-1C34.3,16.4,30.7,12.9,26.3,12.9z"/>
	</g>
</g>
<g id="Layer_2">
	<g>
		<path class="st3" d="M17.4,25.1c0,0.3-0.1,0.6-0.3,0.7s-0.5,0.3-0.8,0.3c-0.4,0-0.7-0.1-0.8-0.3s-0.3-0.4-0.3-0.7V13.6
			c0-0.3,0.1-0.6,0.3-0.8c0.2-0.2,0.4-0.3,0.8-0.3H19c0.9,0,1.6,0.1,2.3,0.3c0.6,0.2,1.2,0.4,1.6,0.8s0.7,0.7,0.9,1.2s0.3,1,0.3,1.5
			c0,0.5-0.1,0.9-0.2,1.3s-0.3,0.8-0.6,1.1s-0.6,0.6-0.9,0.8s-0.8,0.4-1.2,0.5l2.8,4.3c0.1,0.1,0.2,0.3,0.2,0.4s0.1,0.2,0.1,0.3
			c0,0.2,0,0.3-0.1,0.4s-0.2,0.2-0.3,0.3S23.6,26,23.4,26s-0.3,0.1-0.5,0.1s-0.3,0-0.4-0.1s-0.2-0.1-0.3-0.2c0,0-0.1-0.1-0.1-0.1
			s-0.1-0.1-0.1-0.1S22,25.6,22,25.5s-0.1-0.1-0.1-0.2l-3.1-5h-1.5V25.1z M18.9,18.7c0.5,0,0.9-0.1,1.3-0.2c0.4-0.1,0.7-0.3,0.9-0.5
			c0.2-0.2,0.4-0.4,0.5-0.7s0.2-0.6,0.2-0.9c0-0.3-0.1-0.6-0.2-0.9c-0.1-0.3-0.3-0.5-0.5-0.7c-0.2-0.2-0.5-0.3-0.9-0.4
			s-0.8-0.2-1.3-0.2h-1.5v4.3H18.9z"/>
		<path class="st3" d="M28.2,21.4L28.2,21.4c0,0.5,0.1,0.9,0.3,1.3s0.4,0.7,0.6,0.9s0.6,0.5,0.9,0.6s0.8,0.2,1.2,0.2
			c0.4,0,0.7,0,0.9-0.1s0.5-0.1,0.7-0.2s0.3-0.1,0.5-0.2s0.3-0.1,0.4-0.1c0.1,0,0.2,0,0.3,0.1s0.2,0.1,0.2,0.2s0.1,0.1,0.1,0.2
			s0,0.2,0,0.3c0,0.1,0,0.2-0.1,0.3s-0.1,0.2-0.2,0.3c-0.1,0.1-0.2,0.2-0.4,0.3s-0.4,0.2-0.7,0.3s-0.6,0.2-0.9,0.2s-0.7,0.1-1.2,0.1
			c-0.7,0-1.4-0.1-2-0.3s-1.1-0.5-1.5-1s-0.7-0.9-1-1.5c-0.2-0.6-0.3-1.3-0.3-2c0-0.9,0.1-1.6,0.4-2.3c0.2-0.7,0.6-1.2,1-1.7
			s0.9-0.8,1.5-1.1s1.2-0.4,1.9-0.4c0.6,0,1.1,0.1,1.6,0.3s0.9,0.5,1.3,0.8s0.6,0.8,0.8,1.3s0.3,1.1,0.3,1.8c0,0.4-0.1,0.7-0.3,0.9
			s-0.5,0.3-0.9,0.3H28.2z M32.7,20c-0.1-0.8-0.3-1.4-0.7-1.8s-0.9-0.6-1.5-0.6c-0.3,0-0.5,0-0.8,0.1s-0.5,0.2-0.7,0.4
			s-0.4,0.4-0.5,0.8s-0.3,0.7-0.3,1.1H32.7z"/>
		<path class="st3" d="M37.6,17c0-0.3,0.1-0.5,0.3-0.7s0.4-0.2,0.8-0.2s0.6,0.1,0.8,0.2s0.3,0.4,0.3,0.7v9c0,0.5,0,0.9-0.1,1.3
			s-0.2,0.7-0.3,1s-0.3,0.6-0.4,0.8s-0.3,0.4-0.5,0.6c-0.3,0.3-0.6,0.5-1,0.7s-0.7,0.2-1,0.2c-0.1,0-0.3,0-0.4-0.1s-0.2-0.1-0.3-0.2
			s-0.1-0.2-0.2-0.3s-0.1-0.2-0.1-0.3c0-0.2,0-0.3,0.1-0.4s0.2-0.2,0.3-0.3c0.3-0.2,0.5-0.4,0.7-0.5s0.4-0.4,0.5-0.6
			s0.2-0.5,0.3-0.9s0.1-0.8,0.1-1.3V17z M37.3,13.2c0-0.2,0-0.4,0.1-0.5s0.2-0.3,0.3-0.4s0.3-0.2,0.4-0.3s0.4-0.1,0.6-0.1
			c0.2,0,0.4,0,0.5,0.1s0.3,0.2,0.4,0.3s0.2,0.3,0.3,0.4c0.1,0.2,0.1,0.3,0.1,0.5c0,0.2,0,0.4-0.1,0.5s-0.2,0.3-0.3,0.4
			s-0.3,0.2-0.4,0.3s-0.4,0.1-0.6,0.1c-0.2,0-0.4,0-0.5-0.1s-0.3-0.2-0.4-0.3s-0.2-0.3-0.3-0.4S37.3,13.3,37.3,13.2z"/>
		<path class="st3" d="M44.7,21.4L44.7,21.4c0,0.5,0.1,0.9,0.3,1.3s0.4,0.7,0.6,0.9s0.6,0.5,0.9,0.6s0.8,0.2,1.2,0.2
			c0.4,0,0.7,0,0.9-0.1s0.5-0.1,0.7-0.2s0.3-0.1,0.5-0.2s0.3-0.1,0.4-0.1c0.1,0,0.2,0,0.3,0.1s0.2,0.1,0.2,0.2s0.1,0.1,0.1,0.2
			s0,0.2,0,0.3c0,0.1,0,0.2-0.1,0.3s-0.1,0.2-0.2,0.3c-0.1,0.1-0.2,0.2-0.4,0.3s-0.4,0.2-0.7,0.3s-0.6,0.2-0.9,0.2s-0.7,0.1-1.2,0.1
			c-0.7,0-1.4-0.1-2-0.3s-1.1-0.5-1.5-1s-0.7-0.9-1-1.5s-0.3-1.3-0.3-2c0-0.9,0.1-1.6,0.4-2.3s0.6-1.2,1-1.7s0.9-0.8,1.5-1.1
			s1.2-0.4,1.9-0.4c0.6,0,1.1,0.1,1.6,0.3s0.9,0.5,1.3,0.8s0.6,0.8,0.8,1.3s0.3,1.1,0.3,1.8c0,0.4-0.1,0.7-0.3,0.9s-0.5,0.3-0.9,0.3
			H44.7z M49.3,20c-0.1-0.8-0.3-1.4-0.7-1.8s-0.9-0.6-1.5-0.6c-0.3,0-0.5,0-0.8,0.1s-0.5,0.2-0.7,0.4s-0.4,0.4-0.5,0.8
			s-0.3,0.7-0.3,1.1H49.3z"/>
		<path class="st3" d="M53.5,21.5c0-0.9,0.1-1.6,0.4-2.3s0.6-1.3,1-1.7s1-0.8,1.6-1.1s1.3-0.4,2.1-0.4c0.3,0,0.6,0,0.8,0.1
			s0.4,0.1,0.6,0.2s0.3,0.1,0.5,0.2s0.2,0.1,0.3,0.2c0.1,0.1,0.2,0.2,0.2,0.3s0.1,0.2,0.1,0.4c0,0.1,0,0.2-0.1,0.3s-0.1,0.2-0.1,0.2
			S60.7,18,60.6,18s-0.2,0.1-0.3,0.1c-0.1,0-0.2,0-0.3-0.1s-0.2-0.1-0.4-0.1s-0.3-0.1-0.5-0.1s-0.4-0.1-0.7-0.1
			c-0.4,0-0.7,0.1-1.1,0.2s-0.6,0.4-0.9,0.7s-0.4,0.7-0.6,1.1c-0.1,0.4-0.2,0.9-0.2,1.5c0,0.5,0.1,1,0.2,1.4s0.3,0.7,0.6,1
			s0.6,0.5,0.9,0.6s0.7,0.2,1.2,0.2c0.3,0,0.5,0,0.7-0.1s0.3-0.1,0.5-0.1s0.3-0.1,0.4-0.1s0.2-0.1,0.3-0.1c0.1,0,0.2,0,0.3,0.1
			c0.1,0,0.1,0.1,0.2,0.2c0.1,0.1,0.1,0.1,0.1,0.2s0,0.2,0,0.3c0,0.1,0,0.3-0.1,0.4c-0.1,0.1-0.1,0.2-0.2,0.3
			c-0.1,0.1-0.2,0.2-0.4,0.3s-0.3,0.2-0.6,0.2s-0.5,0.1-0.8,0.2s-0.6,0.1-0.9,0.1c-0.7,0-1.3-0.1-1.9-0.3s-1.1-0.5-1.5-1
			S54,24,53.8,23.4S53.5,22.2,53.5,21.5z"/>
		<path class="st3" d="M63,17.8c-0.2,0-0.4-0.1-0.5-0.2s-0.2-0.4-0.2-0.6c0-0.3,0.1-0.5,0.2-0.6s0.3-0.2,0.5-0.2h1l0.3-1.8
			c0.1-0.3,0.2-0.6,0.3-0.7s0.4-0.2,0.7-0.2s0.5,0.1,0.6,0.2s0.2,0.4,0.2,0.7v1.8H68c0.2,0,0.4,0.1,0.5,0.2s0.2,0.3,0.2,0.6
			c0,0.3-0.1,0.5-0.2,0.6s-0.3,0.2-0.5,0.2h-1.9V23c0,0.5,0.1,0.9,0.3,1.1s0.4,0.3,0.8,0.3c0.1,0,0.3,0,0.4,0s0.2,0,0.3-0.1
			s0.1,0,0.2-0.1s0.1,0,0.2,0c0.1,0,0.2,0,0.3,0s0.1,0.1,0.2,0.1s0.1,0.1,0.1,0.2s0,0.2,0,0.3c0,0.2,0,0.3-0.1,0.4s-0.1,0.2-0.2,0.3
			c-0.1,0.1-0.1,0.1-0.2,0.2s-0.2,0.1-0.4,0.2s-0.3,0.1-0.5,0.1s-0.4,0.1-0.7,0.1c-0.9,0-1.6-0.2-2-0.7s-0.7-1.1-0.7-2v-5.7H63z"/>
	</g>
</g>
</svg>
