<?xml version="1.0" encoding="utf-8"?>
<!-- Generator: Adobe Illustrator 25.2.3, SVG Export Plug-In . SVG Version: 6.00 Build 0)  -->
<svg version="1.1" xmlns="http://www.w3.org/2000/svg" xmlns:xlink="http://www.w3.org/1999/xlink" x="0px" y="0px"
	 viewBox="0 0 56 40" style="enable-background:new 0 0 56 40;" xml:space="preserve">
<style type="text/css">
	.st0{fill:#DEFD9B;}
	.st1{display:none;}
	.st2{display:inline;fill:#2B2727;}
	.st3{fill:#2B2727;}
</style>
<g id="Layer_1">
	<path class="st0" d="M40,40H16C7.2,40,0,32.8,0,24v-8C0,7.2,7.2,0,16,0h24c8.8,0,16,7.2,16,16v8C56,32.8,48.8,40,40,40z"/>
</g>
<g id="Layer_2" class="st1">
</g>
<g id="Layer_3" class="st1">
	<path class="st2" d="M22.2,29.2l6.9-9.8c2.5-3.6,1.7-8.6-2-11.1l0,0l-0.8-0.6c-0.9-0.6-2.2-0.4-2.8,0.5l-2.9,4.1
		c-0.3,0.5-0.2,1.1,0.2,1.4l2.5,1.7c0.5,0.3,0.6,0.9,0.2,1.4L17.9,25c-0.3,0.5-0.9,0.6-1.4,0.2l-2.5-1.7c-0.5-0.3-1.1-0.2-1.4,0.2
		l-2.9,4.1c-0.6,0.9-0.4,2.2,0.5,2.8l0.8,0.6C14.7,33.7,19.7,32.9,22.2,29.2z"/>
</g>
<g id="Layer_4" class="st1">
	<path class="st2" d="M26.3,12.9l-12,0c-4.4,0-8,3.6-8,8l0,0v1c0,1.1,0.9,2,2,2h5c0.6,0,1-0.4,1-1v-3c0-0.6,0.4-1,1-1l10,0
		c0.6,0,1,0.4,1,1v3c0,0.6,0.4,1,1,1h5c1.1,0,2-0.9,2-2v-1C34.3,16.4,30.7,12.9,26.3,12.9z"/>
</g>
<g id="Layer_5">
	<g>
		<path class="st3" d="M15.3,14.7c-0.1-0.1-0.1-0.2-0.1-0.2s-0.1-0.1-0.1-0.2s0-0.1-0.1-0.2s0-0.1,0-0.2c0-0.1,0-0.2,0.1-0.3
			s0.1-0.2,0.2-0.3s0.2-0.1,0.3-0.2s0.2-0.1,0.3-0.1s0.2,0,0.3,0.1s0.1,0.1,0.2,0.1c0,0,0.1,0.1,0.1,0.2s0.1,0.2,0.2,0.4l2.3,4
			c0.1,0.1,0.1,0.2,0.2,0.4s0.1,0.2,0.2,0.3c0.1,0.1,0.1,0.2,0.2,0.3h0c0-0.1,0.1-0.2,0.1-0.3c0-0.1,0.1-0.2,0.2-0.3
			s0.1-0.2,0.2-0.4l2.2-4c0.1-0.2,0.2-0.3,0.2-0.4c0-0.1,0.1-0.1,0.1-0.2c0.1-0.1,0.1-0.1,0.2-0.1c0.1,0,0.2,0,0.3,0
			c0.1,0,0.2,0,0.3,0.1s0.2,0.1,0.3,0.2s0.1,0.2,0.2,0.3s0.1,0.2,0.1,0.3c0,0.1,0,0.2-0.1,0.3s-0.1,0.2-0.2,0.4l-3.4,5.6v4.4
			c0,0.2-0.1,0.4-0.2,0.5c-0.1,0.1-0.3,0.2-0.6,0.2c-0.3,0-0.5-0.1-0.6-0.2c-0.1-0.1-0.2-0.3-0.2-0.5v-4.4L15.3,14.7z"/>
		<path class="st3" d="M26.4,21.1L26.4,21.1c0,0.5,0.1,1,0.2,1.3c0.1,0.4,0.3,0.7,0.6,0.9c0.3,0.3,0.6,0.5,0.9,0.6
			c0.4,0.1,0.7,0.2,1.2,0.2c0.3,0,0.6,0,0.9-0.1s0.4-0.1,0.6-0.2s0.3-0.1,0.4-0.1s0.2-0.1,0.3-0.1c0.1,0,0.2,0,0.2,0
			s0.1,0.1,0.2,0.1c0,0,0.1,0.1,0.1,0.2s0,0.1,0,0.2c0,0.1,0,0.2-0.1,0.3s-0.1,0.2-0.2,0.2c-0.1,0.1-0.2,0.2-0.4,0.2
			s-0.4,0.2-0.6,0.2c-0.2,0.1-0.5,0.1-0.8,0.2c-0.3,0.1-0.6,0.1-1,0.1c-0.6,0-1.2-0.1-1.8-0.3c-0.5-0.2-1-0.5-1.3-0.9
			c-0.4-0.4-0.7-0.8-0.9-1.4c-0.2-0.5-0.3-1.1-0.3-1.8c0-0.8,0.1-1.5,0.3-2.1s0.5-1.1,0.9-1.5s0.8-0.7,1.3-0.9s1.1-0.3,1.7-0.3
			c0.5,0,1,0.1,1.4,0.3s0.8,0.4,1.1,0.7s0.5,0.7,0.7,1.2s0.3,1,0.3,1.6c0,0.3-0.1,0.6-0.2,0.7s-0.4,0.3-0.7,0.3H26.4z M30.9,19.9
			c-0.1-0.8-0.3-1.4-0.7-1.8s-0.9-0.6-1.5-0.6c-0.3,0-0.5,0-0.8,0.1s-0.5,0.2-0.7,0.4c-0.2,0.2-0.4,0.4-0.5,0.7s-0.3,0.6-0.3,1.1
			H30.9z"/>
		<path class="st3" d="M34.9,18.9c0-0.4,0.1-0.7,0.2-1s0.4-0.6,0.6-0.8c0.3-0.2,0.6-0.4,1.1-0.5c0.4-0.1,0.9-0.2,1.5-0.2
			c0.3,0,0.6,0,0.8,0.1c0.2,0,0.4,0.1,0.6,0.1s0.3,0.1,0.4,0.2c0.1,0.1,0.2,0.1,0.3,0.2c0.1,0.1,0.1,0.2,0.2,0.2s0,0.2,0,0.3
			c0,0.1,0,0.2,0,0.2s-0.1,0.1-0.1,0.2c-0.1,0-0.1,0.1-0.2,0.1s-0.1,0-0.2,0c-0.1,0-0.2,0-0.3-0.1c-0.1,0-0.2-0.1-0.4-0.1
			c-0.1,0-0.3-0.1-0.5-0.1s-0.4-0.1-0.7-0.1c-0.3,0-0.5,0-0.7,0.1s-0.4,0.1-0.5,0.2s-0.2,0.2-0.3,0.4s-0.1,0.3-0.1,0.4
			c0,0.2,0.1,0.4,0.2,0.6c0.1,0.2,0.3,0.3,0.5,0.4c0.2,0.1,0.5,0.2,0.7,0.3c0.3,0.1,0.6,0.2,0.8,0.3s0.6,0.2,0.8,0.3
			c0.3,0.1,0.5,0.3,0.7,0.5s0.4,0.4,0.5,0.7c0.1,0.3,0.2,0.6,0.2,1s-0.1,0.7-0.2,1.1c-0.2,0.3-0.4,0.6-0.7,0.9s-0.7,0.4-1.1,0.6
			c-0.4,0.1-1,0.2-1.5,0.2c-0.4,0-0.7,0-1-0.1c-0.3,0-0.5-0.1-0.7-0.2c-0.2-0.1-0.4-0.1-0.5-0.2S35.1,25,35,24.9
			c-0.1-0.1-0.1-0.1-0.2-0.2c0-0.1-0.1-0.2-0.1-0.3c0-0.2,0.1-0.3,0.2-0.4c0.1-0.1,0.2-0.2,0.4-0.2c0.1,0,0.2,0,0.3,0.1
			c0.1,0.1,0.3,0.1,0.4,0.2c0.2,0.1,0.4,0.1,0.6,0.2s0.5,0.1,0.9,0.1c0.3,0,0.6,0,0.8-0.1c0.2-0.1,0.4-0.2,0.6-0.3
			c0.2-0.1,0.3-0.2,0.3-0.4s0.1-0.3,0.1-0.5c0-0.2-0.1-0.5-0.2-0.6c-0.1-0.2-0.3-0.3-0.5-0.4c-0.2-0.1-0.5-0.2-0.7-0.3
			c-0.3-0.1-0.6-0.2-0.8-0.3c-0.3-0.1-0.6-0.2-0.8-0.3c-0.3-0.1-0.5-0.3-0.7-0.5s-0.4-0.4-0.5-0.7S34.9,19.3,34.9,18.9z"/>
	</g>
</g>
</svg>
